<svg width="80" height="80" viewBox="0 0 80 80" fill="none" xmlns="http://www.w3.org/2000/svg">
<path d="M38.15 46.025H37.5V40C37.5 39.6685 37.3683 39.3505 37.1339 39.1161C36.8995 38.8817 36.5815 38.75 36.25 38.75H23.675C23.3566 38.7691 23.0576 38.9092 22.8392 39.1416C22.6208 39.374 22.4994 39.6811 22.5 40V45.975H21.85C21.5185 45.975 21.2005 46.1067 20.9661 46.3411C20.7317 46.5755 20.6 46.8935 20.6 47.225C20.6 47.5565 20.7317 47.8745 20.9661 48.1089C21.2005 48.3433 21.5185 48.475 21.85 48.475H38.15C38.4815 48.475 38.7995 48.3433 39.0339 48.1089C39.2683 47.8745 39.4 47.5565 39.4 47.225C39.4 46.8935 39.2683 46.5755 39.0339 46.3411C38.7995 46.1067 38.4815 45.975 38.15 45.975V46.025ZM35.075 46.025H31.25V41.3H35L35.075 46.025ZM25 41.3H28.75V46.025H25V41.3Z" fill="#28A922"/>
<path d="M62.5 2.5C58.5217 2.5 54.7064 4.08035 51.8934 6.8934C49.0803 9.70644 47.5 13.5218 47.5 17.5V30.7L30.925 22.8L30.55 22.5C30.3793 22.4142 30.191 22.3696 30 22.3696C29.809 22.3696 29.6207 22.4142 29.45 22.5L10.45 31.55C10.1587 31.6933 9.93452 31.9444 9.825 32.25L2.575 52.25C2.50677 52.4387 2.48498 52.6411 2.51147 52.84C2.53796 53.0389 2.61196 53.2286 2.72721 53.3929C2.84245 53.5571 2.99556 53.6913 3.17359 53.7839C3.35161 53.8765 3.54932 53.9249 3.75 53.925H4.3V76.25C4.3 76.5815 4.43169 76.8995 4.66612 77.1339C4.90054 77.3683 5.21848 77.5 5.55 77.5H76.25C76.5815 77.5 76.8995 77.3683 77.1339 77.1339C77.3683 76.8995 77.5 76.5815 77.5 76.25V17.5C77.5 13.5218 75.9196 9.70644 73.1066 6.8934C70.2936 4.08035 66.4782 2.5 62.5 2.5ZM75 30H50V27.5H75V30ZM12 33.7L30 25.125L47.95 33.7L54.425 51.475H53.5L47.5 35C47.3905 34.6944 47.1663 34.4433 46.875 34.3L30.575 26.25C30.4005 26.1621 30.2079 26.1163 30.0125 26.1163C29.8171 26.1163 29.6245 26.1621 29.45 26.25L13.075 34.4C12.8205 34.5286 12.6176 34.7403 12.5 35L6.5 51.475H5.525L12 33.7ZM35.975 68.1L31.25 73.1V63.1L35.975 68.1ZM28.75 73.1L24.025 68.1L28.75 63.1V73.1ZM27.1 75H17.5L22.3 70L27.1 75ZM37.7 70L42.5 75H32.9L37.7 70ZM44.15 73.2L39.425 68.2L44.15 63.2V73.2ZM37.7 66.375L32.9 61.375H42.5L37.7 66.375ZM22.3 66.375L17.5 61.2H27.1L22.3 66.375ZM20.575 68.2L15.85 73.2V63.2L20.575 68.2ZM45.825 58.875C45.7007 58.8558 45.5743 58.8558 45.45 58.875H14.6C14.4757 58.8558 14.3493 58.8558 14.225 58.875C13.9834 58.9623 13.7746 59.122 13.627 59.3322C13.4794 59.5425 13.4001 59.7931 13.4 60.05V75.05H6.8V53.975H7.5C7.75689 53.9749 8.00751 53.8956 8.21775 53.748C8.428 53.6004 8.58765 53.3916 8.675 53.15L14.75 36.425L30 28.775L45.35 36.425L51.425 53.15C51.5123 53.3916 51.672 53.6004 51.8822 53.748C52.0925 53.8956 52.3431 53.9749 52.6 53.975H53.175V75H46.65V60C46.6551 59.7389 46.5783 59.4827 46.4303 59.2675C46.2823 59.0522 46.0706 58.8888 45.825 58.8V58.875ZM75 75H55.7V53.975H56.25C56.4507 53.9749 56.6484 53.9265 56.8264 53.8339C57.0044 53.7413 57.1575 53.6071 57.2728 53.4429C57.388 53.2786 57.462 53.0889 57.4885 52.89C57.515 52.6911 57.4932 52.4887 57.425 52.3L50.225 32.5H75V75ZM75 25H50V17.5C50 14.1848 51.317 11.0054 53.6612 8.66117C56.0054 6.31696 59.1848 5 62.5 5C65.8152 5 68.9946 6.31696 71.3388 8.66117C73.683 11.0054 75 14.1848 75 17.5V25Z" fill="#28A922"/>
</svg>
