<svg width="80" height="80" viewBox="0 0 80 80" fill="none" xmlns="http://www.w3.org/2000/svg">
<path d="M66.7422 50.2386L65.2297 49.8461C63.9186 54.8992 60.4769 59.1419 55.7867 61.4864L56.4855 62.8841C61.5795 60.3378 65.318 55.7286 66.7422 50.2386Z" fill="#28A922"/>
<path d="M70.6366 68.53H6.21454V70.0925H70.6366V68.53Z" fill="#28A922"/>
<path d="M9.58579 42.1127C9.6811 41.6197 9.77344 41.1575 9.86313 40.7205L14.1797 42.3086L14.7192 40.8422L10.1925 39.1767C10.7938 36.4772 11.2603 35.0348 11.6494 33.9784C12.0786 32.8111 12.937 31.8808 14.0667 31.3589C15.1964 30.837 16.4614 30.7864 17.6294 31.2164C18.7972 31.6456 19.7277 32.5041 20.2495 33.6337C20.7713 34.7633 20.8222 36.0284 20.393 37.1958C20.3377 37.3459 20.2563 37.5452 20.1519 37.7866L16.357 36.3903L15.8175 37.8567L19.4997 39.2116C18.9247 40.4228 18.1352 42.0023 17.2375 43.7042H6.87938V45.3098C6.87938 45.7456 6.89235 46.1866 6.91798 46.6203C7.43141 55.348 13.0241 62.6506 20.7174 65.7252H6.21454V67.2877H28.8573H47.9938H70.6366V65.7252H56.1316C64.2333 62.4844 69.9716 54.5552 69.9716 45.3098V45.1844C70.9695 45.0245 71.9155 44.6347 72.7483 44.0345C74.1673 43.0116 75.1033 41.4977 75.3841 39.7712C75.6652 38.0444 75.2566 36.3119 74.2339 34.8933C73.5084 33.8864 72.5197 33.128 71.4073 32.6705C71.8005 32.1083 72.0505 31.4477 72.1131 30.7581C72.1484 30.3769 72.1277 29.9905 72.0511 29.6081C71.6155 27.4661 69.5181 26.0767 67.3753 26.5119C67.0048 26.5872 66.6516 26.7136 66.3239 26.8852C66.318 26.8473 66.3139 26.8095 66.3075 26.7716C65.9495 24.6772 64.7977 22.8473 63.0636 21.6194C59.4841 19.0844 54.5097 19.9342 51.9745 23.5137C51.5672 24.0891 51.2455 24.7092 51.0084 25.3553C47.4744 24.4962 43.8488 26.5772 42.8358 30.1037C42.395 31.6366 42.5056 33.2833 43.1472 34.7405L44.5772 34.1109C44.0825 32.9877 43.9973 31.7178 44.3373 30.5355C44.7256 29.1837 45.617 28.0641 46.8473 27.3828C48.0061 26.7416 49.3347 26.5616 50.6153 26.8669C50.3409 28.6095 50.6423 30.4327 51.5356 32.0191L52.8972 31.2525C51.6895 29.1077 51.8278 26.4247 53.2497 24.4169C54.2363 23.0236 55.7067 22.0978 57.3897 21.8103C59.0725 21.5228 60.7669 21.9078 62.1603 22.8947C63.5536 23.8814 64.4795 25.3517 64.767 27.0347C65.0545 28.7177 64.6694 30.412 63.6827 31.8053L64.9578 32.7083C65.7925 31.5298 66.2802 30.1783 66.3952 28.7759C66.7364 28.4028 67.1847 28.1452 67.6864 28.0431C68.9853 27.7798 70.2558 28.6214 70.5194 29.9175C70.5659 30.1494 70.5786 30.3837 70.5572 30.6155C70.5008 31.2384 70.1928 31.8225 69.7198 32.2269C69.0655 32.1444 68.3948 32.1564 67.7289 32.2787L68.0111 33.8156C69.9003 33.4684 71.8452 34.2502 72.9664 35.8067C74.5734 38.0362 74.0659 41.1586 71.8348 42.767C71.0016 43.3675 70.0197 43.6911 68.9945 43.7041H60.4087C62.7527 40.2823 64.7297 40.1016 64.7514 40.1002L64.7355 40.1008L64.6912 38.5389C64.3727 38.548 61.5555 38.7734 58.5505 43.7041H58.1609C58.1886 43.4512 58.2066 43.1964 58.2106 42.94C58.245 40.7141 57.4042 38.615 55.8433 37.0297C54.2819 35.4439 52.1967 34.5706 49.9717 34.5706C48.5808 34.5706 47.2041 34.9242 45.9898 35.5937C45.6325 35.7917 45.255 35.9787 44.8684 36.1494C42.8834 37.0244 40.7866 37.3767 38.8044 37.1677C38.6403 37.1505 38.473 37.1423 38.3044 37.1397C36.4816 35.6162 34.418 34.3077 32.8161 33.3833C32.7838 31.6367 32.9381 29.8762 33.278 28.1481L33.4613 27.2161H32.5114C32.0731 27.2161 30.9533 27.3166 30.0231 28.2467C29.9344 28.3356 29.8517 28.4289 29.7738 28.5252C29.6958 28.4289 29.6131 28.3356 29.5244 28.2467C28.5941 27.3164 27.4744 27.2161 27.0361 27.2161H26.0863L26.2694 28.148C26.6092 29.8762 26.7634 31.6366 26.7313 33.3823C25.4017 34.1492 23.7544 35.1802 22.1917 36.3791C22.3414 35.2287 22.1666 34.0572 21.6681 32.9783C21.3147 32.2133 20.8206 31.542 20.2164 30.9908C20.5623 30.7666 20.8944 30.5036 21.1861 30.2575C22.3091 29.3095 23.6116 27.9141 24.8538 26.3283C26.0958 24.743 27.1384 23.1444 27.7897 21.827C28.3286 20.7369 28.9417 19.2062 28.0463 18.5039C27.3169 17.9325 26.1102 18.4095 24.4478 19.9208C24.4708 19.7092 24.4888 19.5025 24.5 19.3028C24.6311 16.9687 23.8891 16.1956 23.2434 15.9581C22.1017 15.5381 20.8261 16.6069 19.693 18.3011C19.4141 15.9839 18.7986 14.7923 17.8539 14.7539C16.7252 14.7084 16.1922 16.2712 15.8961 17.4508C15.5381 18.8761 15.2961 20.7691 15.2144 22.7812C15.1325 24.7941 15.2199 26.7011 15.4606 28.1508C15.5248 28.5377 15.6098 28.9659 15.7336 29.3706C14.9406 29.4073 14.1542 29.5972 13.4117 29.9402C11.903 30.637 10.7564 31.8797 10.1833 33.4384C9.65079 34.8842 8.9811 37.0103 8.05173 41.8156L9.58579 42.1127ZM21.1961 39.2734C21.7795 38.7167 22.4191 38.1792 23.0802 37.6703C22.0613 39.3512 21.358 41.3086 21.358 43.3844C21.358 43.4912 21.3619 43.5977 21.3641 43.7044H19.0019C19.9161 41.9478 20.6759 40.3995 21.1961 39.2734ZM32.7575 41.24H29.8974V42.8025H32.5334C32.5328 43.1066 32.5548 43.4078 32.6019 43.7044H27.3373C27.3363 43.5977 27.3345 43.4912 27.3345 43.3844C27.3345 39.7728 28.3281 36.7591 29.1322 35.0803V35.3053H29.1338L29.1336 35.0775C29.3813 34.5606 29.6113 34.1689 29.7881 33.9277C30.2667 34.5553 31.1428 36.2594 31.7194 38.8795L33.2455 38.5439C32.9425 37.1666 32.5109 35.8359 32.0133 34.7289C33.2542 35.4447 34.7839 36.398 36.2341 37.4919C35.0688 37.9267 34.0589 38.743 33.382 39.8361C33.1092 40.2748 32.9006 40.748 32.7575 41.24ZM22.9266 43.7044C22.9241 43.5977 22.9205 43.4914 22.9205 43.3844C22.9205 40.2917 24.767 37.7606 25.8678 36.5272C26.4042 35.9261 26.9353 35.4309 27.4278 35.0323C27.3288 35.2675 27.2356 35.5027 27.1494 35.7317C26.635 37.098 25.7722 39.9089 25.7722 43.3844C25.7722 43.4912 25.7739 43.5977 25.775 43.7044H22.9266ZM68.4091 45.31C68.4091 56.5672 59.2508 65.7253 47.9938 65.7253H28.8573C18.0628 65.7253 9.1111 57.2931 8.47782 46.5286C8.45407 46.1253 8.44204 45.7153 8.44204 45.31V45.2669H68.4092V45.31H68.4091ZM46.153 42.8098C46.153 40.6916 47.8769 38.9684 49.9961 38.9684C52.1144 38.9684 53.8377 40.6917 53.8377 42.8098C53.8377 43.1141 53.7984 43.4127 53.7288 43.7044H46.2623C46.1922 43.4134 46.153 43.1148 46.153 42.8098ZM45.4989 37.5794C45.9286 37.3897 46.3486 37.1816 46.7455 36.9616C47.7281 36.4198 48.8438 36.1334 49.9716 36.1334C51.7745 36.1334 53.4644 36.8412 54.7298 38.1262C55.9948 39.4109 56.6761 41.112 56.6481 42.9156C56.6439 43.1809 56.6223 43.4445 56.5873 43.7044H55.3248C55.3738 43.4103 55.3998 43.1119 55.3998 42.8098C55.3998 39.8302 52.9755 37.4059 49.9958 37.4059C47.0152 37.4059 44.5902 39.8302 44.5902 42.8098C44.5902 43.1122 44.6163 43.4106 44.6653 43.7044H34.192C34.1184 43.3737 34.0856 43.0337 34.0959 42.6884C34.1172 41.9727 34.3291 41.2717 34.7094 40.6598C35.428 39.4992 36.6584 38.7683 38.0008 38.7045C38.2178 38.6942 38.4328 38.7002 38.64 38.722C40.8936 38.9591 43.2648 38.5642 45.4989 37.5794ZM31.1278 29.352C31.2597 29.2201 31.3995 29.1184 31.5383 29.04C31.3658 30.1937 31.2706 31.357 31.252 32.5177C30.9741 32.3705 30.7391 32.2494 30.5548 32.1561V30.7355C30.5548 30.2128 30.7583 29.7216 31.1278 29.352ZM28.0088 29.04C28.1475 29.1184 28.2873 29.2201 28.4192 29.352C28.7888 29.7216 28.9922 30.2128 28.9922 30.7355V32.1559C28.808 32.2491 28.5722 32.3706 28.295 32.5173C28.2766 31.3569 28.1814 30.1937 28.0088 29.04ZM26.8494 20.0342C26.5575 20.9533 25.5702 22.8803 23.6236 25.3652C23.1455 25.9755 22.6866 26.5208 22.2536 27.0048C22.6325 26.2466 22.9783 25.4408 23.2758 24.6322C23.5134 23.9867 23.7174 23.3447 23.8905 22.717C25.2591 21.1987 26.2752 20.3833 26.8494 20.0342ZM22.7024 17.4291C23.0334 17.7447 23.2497 20.1786 21.8097 24.0925C20.3694 28.0067 18.627 29.72 18.1705 29.7456C17.8394 29.43 17.623 26.9961 19.0631 23.082C20.5034 19.1678 22.2458 17.4547 22.7024 17.4291ZM16.7756 22.8451C16.9036 19.6914 17.4009 17.5841 17.7742 16.695C17.9914 17.3512 18.2453 18.6839 18.2936 20.8309L18.3022 20.8308C18.0461 21.3891 17.8092 21.9652 17.5967 22.5425C17.2633 23.4487 16.978 24.392 16.7659 25.3097C16.7395 24.575 16.7386 23.7527 16.7756 22.8451Z" fill="#28A922"/>
<path d="M12.3495 36.5804L14.4136 37.3398L14.9531 35.8734L12.889 35.114L12.3495 36.5804Z" fill="#28A922"/>
<path d="M70.372 40.9919C69.8089 41.3973 69.1217 41.5591 68.4366 41.448L68.1859 42.9902C68.4119 43.0269 68.6381 43.0452 68.8625 43.0452C69.7278 43.0452 70.5692 42.7753 71.2852 42.26C72.1869 41.6106 72.7817 40.6488 72.9603 39.5519C73.1386 38.455 72.8791 37.3544 72.2298 36.4527L70.9619 37.3658C71.3675 37.9289 71.5294 38.6163 71.418 39.3011C71.3064 39.9858 70.935 40.5863 70.372 40.9919ZM56.9102 25.9669L57.342 24.4652C55.5511 23.9506 53.6745 24.9886 53.1595 26.7797C52.6447 28.5709 53.6831 30.447 55.4742 30.962L55.9058 29.4603C54.9427 29.1834 54.3845 28.1745 54.6613 27.2114C54.9381 26.2483 55.947 25.69 56.9102 25.9669Z" fill="#28A922"/>
<path d="M29.6587 15.5872H31.2212V13.6516H33.157V12.0891H31.2212V10.1533H29.6587V12.0891H27.7231V13.6516H29.6587V15.5872Z" fill="#28A922"/>
<path d="M47.9486 22.575H49.5111V20.6394H51.4469V19.0769H49.5111V17.1411H47.9486V19.0769H46.0128V20.6394H47.9486V22.575Z" fill="#28A922"/>
<path d="M6.46499 29.197H8.02749V27.2614H9.96327V25.6989H8.02749V23.7631H6.46499V25.6989H4.52921V27.2614H6.46499V29.197Z" fill="#28A922"/>
</svg>
