<svg width="80" height="80" viewBox="0 0 80 80" fill="none" xmlns="http://www.w3.org/2000/svg">
<g clip-path="url(#clip0_1_229)">
<path fill-rule="evenodd" clip-rule="evenodd" d="M4.29193 46.1898C4.29193 46.4446 4.48343 46.6586 4.73669 46.6868C5.91513 46.8178 6.81233 47.9107 6.81233 49.2172C6.81233 49.3214 6.80672 49.4241 6.79558 49.5251C6.68969 50.4692 6.88198 51.4242 7.34575 52.2548C7.64787 52.7982 7.81868 53.435 7.81868 54.1145C7.81868 56.0143 6.47997 57.5912 4.75245 57.7281C4.49239 57.7487 4.29193 57.9657 4.29193 58.2266V65.6071C4.29193 65.8832 4.51574 66.1071 4.79195 66.1071H28.6115C28.8876 66.1071 29.1115 65.8832 29.1115 65.6071V44.1689C29.1115 43.8927 28.8876 43.6689 28.6115 43.6689H4.79195C4.51574 43.6689 4.29193 43.8927 4.29193 44.1689V46.1898ZM5.29187 45.7756V44.6689H28.1115V65.1071H5.29187V58.6616C7.29235 58.2673 8.81872 56.3865 8.81872 54.1145C8.81872 53.2573 8.60092 52.4545 8.2193 51.7681C8.21921 51.7679 8.21901 51.7676 8.21891 51.7673C7.8569 51.1189 7.70667 50.3734 7.78952 49.6353C7.78952 49.6349 7.78962 49.6345 7.78962 49.634C7.80459 49.4974 7.81237 49.3583 7.81237 49.2172C7.81237 47.5465 6.73323 46.1541 5.29187 45.7756Z" fill="#28A922"/>
<path fill-rule="evenodd" clip-rule="evenodd" d="M29.1115 29.2813C29.1115 29.0052 28.8877 28.7814 28.6116 28.7814H15.0059C14.8672 28.7814 14.7347 28.839 14.6401 28.9404L4.42617 39.8999C4.33987 39.9925 4.2919 40.1143 4.2919 40.2409V44.169C4.2919 44.4451 4.51581 44.669 4.79192 44.669H28.6116C28.8877 44.669 29.1115 44.4451 29.1115 44.169V29.2813ZM28.1116 29.7814V43.669H5.29194V40.4377L15.2234 29.7814H28.1116Z" fill="#28A922"/>
<path fill-rule="evenodd" clip-rule="evenodd" d="M25.2341 51.9081C25.2341 51.632 25.0103 51.4081 24.7341 51.4081H17.5881C17.3119 51.4081 17.088 51.632 17.088 51.9081V65.6043C17.088 65.8804 17.3119 66.1043 17.5881 66.1043H24.7341C25.0103 66.1043 25.2341 65.8804 25.2341 65.6043V51.9081ZM24.2341 52.4081V65.1043H18.0881V52.4081H24.2341Z" fill="#28A922"/>
<path fill-rule="evenodd" clip-rule="evenodd" d="M15.7089 51.9093C15.7089 51.6332 15.4851 51.4094 15.2089 51.4094H9.84898C9.57279 51.4094 9.34891 51.6332 9.34891 51.9093V59.0552C9.34891 59.3314 9.57279 59.5553 9.84898 59.5553H15.2089C15.4851 59.5553 15.7089 59.3314 15.7089 59.0552V51.9093ZM14.7088 52.4093V58.5553H10.349V52.4093H14.7088Z" fill="#28A922"/>
<path fill-rule="evenodd" clip-rule="evenodd" d="M42.9196 30.4719C42.9196 30.1958 42.6958 29.9719 42.4196 29.9719H35.2736C34.9974 29.9719 34.7735 30.1958 34.7735 30.4719V37.6178C34.7735 37.8939 34.9974 38.1178 35.2736 38.1178H42.4196C42.6958 38.1178 42.9196 37.8939 42.9196 37.6178V30.4719ZM41.9196 30.9719V37.1178H35.7736V30.9719H41.9196Z" fill="#28A922"/>
<path fill-rule="evenodd" clip-rule="evenodd" d="M68.6183 30.4719C68.6183 30.1958 68.3945 29.9719 68.1183 29.9719H60.9723C60.6961 29.9719 60.4722 30.1958 60.4722 30.4719V37.6178C60.4722 37.8939 60.6961 38.1178 60.9723 38.1178H68.1183C68.3945 38.1178 68.6183 37.8939 68.6183 37.6178V30.4719ZM67.6183 30.9719V37.1178H61.4723V30.9719H67.6183Z" fill="#28A922"/>
<path fill-rule="evenodd" clip-rule="evenodd" d="M29.1105 39.4051C29.1105 39.1289 28.8866 38.905 28.6105 38.905H2.4095C2.13341 38.905 1.90955 39.1289 1.90955 39.4051V41.7879C1.90955 42.0641 2.13341 42.288 2.4095 42.288H28.6105C28.8866 42.288 29.1105 42.0641 29.1105 41.7879V39.4051ZM28.1105 39.9053V41.2877C28.1105 41.2877 2.90945 41.2877 2.90945 41.2877V39.9053L28.1105 39.9053Z" fill="#28A922"/>
<path fill-rule="evenodd" clip-rule="evenodd" d="M55.3125 40.0009C55.3125 39.7247 55.0886 39.5008 54.8126 39.5008H28.6115C28.3354 39.5008 28.1116 39.7247 28.1116 40.0009V42.3837C28.1116 42.6599 28.3354 42.8839 28.6115 42.8839H54.8126C55.0886 42.8839 55.3125 42.6599 55.3125 42.3837V40.0009ZM54.3125 40.5011V41.8836C54.3125 41.8835 29.1115 41.8835 29.1115 41.8835V40.5011L54.3125 40.5011Z" fill="#28A922"/>
<path fill-rule="evenodd" clip-rule="evenodd" d="M79.8718 40.0009C79.8718 39.7247 79.6479 39.5008 79.3718 39.5008H54.8133C54.5371 39.5008 54.3133 39.7247 54.3133 40.0009V42.3837C54.3133 42.6599 54.5371 42.8839 54.8133 42.8839H79.3718C79.6479 42.8839 79.8718 42.6599 79.8718 42.3837V40.0009ZM78.8718 40.5011V41.8836C78.8718 41.8835 55.3133 41.8835 55.3133 41.8835V40.5011H78.8718Z" fill="#28A922"/>
<path fill-rule="evenodd" clip-rule="evenodd" d="M52.9342 65.6056C52.9342 65.3294 52.7104 65.1056 52.4342 65.1056H0.625146C0.349004 65.1056 0.125153 65.3294 0.125153 65.6056V67.9875C0.125153 68.2637 0.349004 68.4876 0.625146 68.4876H52.4342C52.7104 68.4876 52.9342 68.2637 52.9342 67.9875V65.6056ZM51.9342 66.1055V67.4876H1.12514V66.1055H51.9342Z" fill="#28A922"/>
<path fill-rule="evenodd" clip-rule="evenodd" d="M79.8773 65.6056C79.8773 65.3294 79.6534 65.1056 79.3773 65.1056H52.4341C52.1579 65.1056 51.9341 65.3294 51.9341 65.6056V67.9875C51.9341 68.2637 52.1579 68.4876 52.4341 68.4876H79.3773C79.6534 68.4876 79.8773 68.2637 79.8773 67.9875V65.6056ZM78.8772 66.1055V67.4876H52.9341V66.1055H78.8772Z" fill="#28A922"/>
<path fill-rule="evenodd" clip-rule="evenodd" d="M52.9311 23.9212C52.9311 23.6451 52.7072 23.4212 52.4311 23.4212H28.6116C28.3353 23.4212 28.1115 23.6451 28.1115 23.9212V39.9993C28.1115 40.2754 28.3353 40.4992 28.6116 40.4992H52.4311C52.7072 40.4992 52.9311 40.2754 52.9311 39.9993V23.9212ZM51.9312 24.4212V39.4993C51.9311 39.4993 29.1115 39.4993 29.1115 39.4993V24.4212H51.9312Z" fill="#28A922"/>
<path fill-rule="evenodd" clip-rule="evenodd" d="M76.7518 23.9212C76.7518 23.645 76.5279 23.4212 76.2518 23.4212H52.4322C52.156 23.4212 51.9322 23.645 51.9322 23.9212V39.9993C51.9322 40.2753 52.156 40.4992 52.4322 40.4992H76.2518C76.5279 40.4992 76.7518 40.2753 76.7518 39.9993V23.9212ZM75.7518 24.4212V39.4993C75.7517 39.4993 52.9321 39.4993 52.9321 39.4993V24.4212H75.7518ZM40.3562 12.4008L40.3559 12.4007L40.3562 12.4008C40.4338 12.4634 40.5305 12.5034 40.6362 12.5102L40.6983 12.5346C40.6037 12.5346 40.5111 12.5078 40.4311 12.4572L51.9322 19.7305V21.5392C51.9322 21.8154 52.156 22.0392 52.4322 22.0392H76.2518C76.5279 22.0392 76.7518 21.8154 76.7518 21.5392V19.4551C76.7518 19.2837 76.6639 19.1241 76.519 19.0325L64.7488 11.5889C64.6688 11.5384 64.5761 11.5116 64.4816 11.5116H40.6699C40.3938 11.5116 40.17 11.7354 40.17 12.0116C40.17 12.1689 40.2426 12.3093 40.3562 12.4008ZM42.3879 12.5116H64.3366C64.3367 12.5116 75.7517 19.7305 75.7517 19.7305C75.7518 19.7305 75.7518 21.0393 75.7518 21.0393C75.7517 21.0393 52.9321 21.0393 52.9321 21.0393V19.4551C52.9321 19.2837 52.8443 19.1241 52.6994 19.0325L42.3879 12.5116ZM40.8482 12.5116C40.8006 12.5266 40.7502 12.5346 40.6983 12.5346L40.7098 12.5116H40.8482Z" fill="#28A922"/>
<path fill-rule="evenodd" clip-rule="evenodd" d="M49.5492 65.1072H31.4935V52.4105H49.4825C49.667 52.4105 49.8365 52.3089 49.9234 52.1461C50.351 51.346 50.5234 50.4341 50.4231 49.5308C50.4167 49.4314 50.4107 49.325 50.4107 49.2173C50.4107 47.9108 51.3079 46.8179 52.4864 46.6869C52.7395 46.6587 52.9311 46.4446 52.9311 46.1898V42.3824C52.9311 42.1062 52.7072 41.8824 52.4311 41.8824H28.6116C28.3353 41.8824 28.1115 42.1062 28.1115 42.3824V65.6074C28.1115 65.8835 28.3353 66.1074 28.6116 66.1074H52.4311C52.7072 66.1074 52.9311 65.8835 52.9311 65.6074V58.2267C52.9311 57.9659 52.7307 57.7488 52.4706 57.7283C51.6691 57.6647 50.9492 57.2882 50.4183 56.707C50.2791 56.5547 50.0606 56.5035 49.8683 56.578C49.676 56.6528 49.5492 56.8379 49.5492 57.0442V65.1072ZM30.4935 65.1072H29.1115V42.8824H51.9312V45.7757C50.4898 46.1542 49.4107 47.5465 49.4107 49.2173C49.4107 49.3514 49.4178 49.4835 49.4267 49.6142C49.4272 49.6214 49.4278 49.6289 49.4286 49.6361C49.4969 50.2425 49.4076 50.854 49.1687 51.4104C49.1686 51.4105 30.9935 51.4105 30.9935 51.4105C30.7173 51.4105 30.4935 51.6344 30.4935 51.9105V65.1072ZM50.5491 65.1072V58.1105L50.5494 58.1106C50.9691 58.3755 51.4352 58.5643 51.9312 58.6619V65.1072H50.5491Z" fill="#28A922"/>
<path fill-rule="evenodd" clip-rule="evenodd" d="M15.7062 49.5274V47.1454C15.7062 46.8697 15.4817 46.6458 15.2059 46.6458C14.9302 46.6458 14.7057 46.8697 14.7057 47.1454V49.5274C14.7057 49.8037 14.9302 50.0276 15.2059 50.0276C15.4817 50.0276 15.7062 49.8037 15.7062 49.5274Z" fill="#28A922"/>
<path fill-rule="evenodd" clip-rule="evenodd" d="M20.4706 49.5274V47.1454C20.4706 46.8697 20.2461 46.6458 19.9704 46.6458C19.6947 46.6458 19.4702 46.8697 19.4702 47.1454V49.5274C19.4702 49.8037 19.6947 50.0276 19.9704 50.0276C20.2461 50.0276 20.4706 49.8037 20.4706 49.5274Z" fill="#28A922"/>
<path fill-rule="evenodd" clip-rule="evenodd" d="M38.1545 49.5274V47.1454C38.1545 46.8697 37.93 46.6458 37.6543 46.6458C37.3786 46.6458 37.1541 46.8697 37.1541 47.1454V49.5274C37.1541 49.8037 37.3786 50.0276 37.6543 50.0276C37.93 50.0276 38.1545 49.8037 38.1545 49.5274Z" fill="#28A922"/>
<path fill-rule="evenodd" clip-rule="evenodd" d="M38.1545 28.0895V26.3031C38.1545 26.027 37.93 25.8033 37.6543 25.8033C37.3786 25.8033 37.1541 26.027 37.1541 26.3031V28.0895C37.1541 28.3656 37.3786 28.5898 37.6543 28.5898C37.93 28.5898 38.1545 28.3656 38.1545 28.0895Z" fill="#28A922"/>
<path fill-rule="evenodd" clip-rule="evenodd" d="M63.854 28.0895V26.3031C63.854 26.027 63.6295 25.8033 63.3538 25.8033C63.0781 25.8033 62.8536 26.027 62.8536 26.3031V28.0895C62.8536 28.3656 63.0781 28.5898 63.3538 28.5898C63.6295 28.5898 63.854 28.3656 63.854 28.0895Z" fill="#28A922"/>
<path fill-rule="evenodd" clip-rule="evenodd" d="M25.2342 49.5274V47.1454C25.2342 46.8697 25.0097 46.6458 24.734 46.6458C24.4583 46.6458 24.2338 46.8697 24.2338 47.1454V49.5274C24.2338 49.8037 24.4583 50.0276 24.734 50.0276C25.0097 50.0276 25.2342 49.8037 25.2342 49.5274Z" fill="#28A922"/>
<path fill-rule="evenodd" clip-rule="evenodd" d="M42.919 49.5274V47.1454C42.919 46.8697 42.6945 46.6458 42.4187 46.6458C42.143 46.6458 41.9185 46.8697 41.9185 47.1454V49.5274C41.9185 49.8037 42.143 50.0276 42.4187 50.0276C42.6945 50.0276 42.919 49.8037 42.919 49.5274Z" fill="#28A922"/>
<path fill-rule="evenodd" clip-rule="evenodd" d="M42.919 28.0895V26.3031C42.919 26.027 42.6945 25.8033 42.4187 25.8033C42.143 25.8033 41.9185 26.027 41.9185 26.3031V28.0895C41.9185 28.3656 42.143 28.5898 42.4187 28.5898C42.6945 28.5898 42.919 28.3656 42.919 28.0895Z" fill="#28A922"/>
<path fill-rule="evenodd" clip-rule="evenodd" d="M68.6177 28.0895V26.3031C68.6177 26.027 68.3932 25.8033 68.1174 25.8033C67.8417 25.8033 67.6172 26.027 67.6172 26.3031V28.0895C67.6172 28.3656 67.8417 28.5898 68.1174 28.5898C68.3932 28.5898 68.6177 28.3656 68.6177 28.0895Z" fill="#28A922"/>
<path fill-rule="evenodd" clip-rule="evenodd" d="M10.3468 49.5274V47.1454C10.3468 46.8697 10.1222 46.6458 9.84653 46.6458C9.57081 46.6458 9.34631 46.8697 9.34631 47.1454V49.5274C9.34631 49.8037 9.57081 50.0276 9.84653 50.0276C10.1222 50.0276 10.3468 49.8037 10.3468 49.5274Z" fill="#28A922"/>
<path fill-rule="evenodd" clip-rule="evenodd" d="M13.0264 49.5274V47.1454C13.0264 46.8697 12.8019 46.6458 12.5262 46.6458C12.2505 46.6458 12.026 46.8697 12.026 47.1454V49.5274C12.026 49.8037 12.2505 50.0276 12.5262 50.0276C12.8019 50.0276 13.0264 49.8037 13.0264 49.5274Z" fill="#28A922"/>
<path fill-rule="evenodd" clip-rule="evenodd" d="M13.0264 59.055V51.909C13.0264 51.6339 12.8019 51.4088 12.5262 51.4088C12.2505 51.4088 12.026 51.6339 12.026 51.909V59.055C12.026 59.3319 12.2505 59.5552 12.5262 59.5552C12.8019 59.5552 13.0264 59.3319 13.0264 59.055Z" fill="#28A922"/>
<path fill-rule="evenodd" clip-rule="evenodd" d="M18.0876 49.5274V47.1454C18.0876 46.8697 17.8631 46.6458 17.5873 46.6458C17.3116 46.6458 17.0871 46.8697 17.0871 47.1454V49.5274C17.0871 49.8037 17.3116 50.0276 17.5873 50.0276C17.8631 50.0276 18.0876 49.8037 18.0876 49.5274Z" fill="#28A922"/>
<path fill-rule="evenodd" clip-rule="evenodd" d="M35.7731 49.5274V47.1454C35.7731 46.8697 35.5486 46.6458 35.2729 46.6458C34.9971 46.6458 34.7726 46.8697 34.7726 47.1454V49.5274C34.7726 49.8037 34.9971 50.0276 35.2729 50.0276C35.5486 50.0276 35.7731 49.8037 35.7731 49.5274Z" fill="#28A922"/>
<path fill-rule="evenodd" clip-rule="evenodd" d="M35.7731 28.0895V26.3031C35.7731 26.027 35.5486 25.8033 35.2729 25.8033C34.9971 25.8033 34.7726 26.027 34.7726 26.3031V28.0895C34.7726 28.3656 34.9971 28.5898 35.2729 28.5898C35.5486 28.5898 35.7731 28.3656 35.7731 28.0895Z" fill="#28A922"/>
<path fill-rule="evenodd" clip-rule="evenodd" d="M61.4718 28.0895V26.3031C61.4718 26.027 61.2473 25.8033 60.9716 25.8033C60.6958 25.8033 60.4713 26.027 60.4713 26.3031V28.0895C60.4713 28.3656 60.6958 28.5898 60.9716 28.5898C61.2473 28.5898 61.4718 28.3656 61.4718 28.0895Z" fill="#28A922"/>
<path fill-rule="evenodd" clip-rule="evenodd" d="M22.852 49.5274V47.1454C22.852 46.8697 22.6275 46.6458 22.3518 46.6458C22.0761 46.6458 21.8516 46.8697 21.8516 47.1454V49.5274C21.8516 49.8037 22.0761 50.0276 22.3518 50.0276C22.6275 50.0276 22.852 49.8037 22.852 49.5274Z" fill="#28A922"/>
<path fill-rule="evenodd" clip-rule="evenodd" d="M40.5367 49.5274V47.1454C40.5367 46.8697 40.3122 46.6458 40.0365 46.6458C39.7608 46.6458 39.5363 46.8697 39.5363 47.1454V49.5274C39.5363 49.8037 39.7608 50.0276 40.0365 50.0276C40.3122 50.0276 40.5367 49.8037 40.5367 49.5274Z" fill="#28A922"/>
<path fill-rule="evenodd" clip-rule="evenodd" d="M40.5367 28.0895V26.3031C40.5367 26.027 40.3122 25.8033 40.0365 25.8033C39.7608 25.8033 39.5363 26.027 39.5363 26.3031V28.0895C39.5363 28.3656 39.7608 28.5898 40.0365 28.5898C40.3122 28.5898 40.5367 28.3656 40.5367 28.0895Z" fill="#28A922"/>
<path fill-rule="evenodd" clip-rule="evenodd" d="M66.2354 28.0895V26.3031C66.2354 26.027 66.0109 25.8033 65.7352 25.8033C65.4595 25.8033 65.235 26.027 65.235 26.3031V28.0895C65.235 28.3656 65.4595 28.5898 65.7352 28.5898C66.0109 28.5898 66.2354 28.3656 66.2354 28.0895Z" fill="#28A922"/>
<path fill-rule="evenodd" clip-rule="evenodd" d="M39.346 37.6171V31.0666C39.346 30.7915 39.1215 30.5672 38.8458 30.5672C38.5701 30.5672 38.3456 30.7915 38.3456 31.0666V37.6171C38.3456 37.8939 38.5701 38.1166 38.8458 38.1166C39.1215 38.1166 39.346 37.8939 39.346 37.6171Z" fill="#28A922"/>
<path fill-rule="evenodd" clip-rule="evenodd" d="M65.0447 37.6171V31.0666C65.0447 30.7915 64.8202 30.5672 64.5445 30.5672C64.2688 30.5672 64.0443 30.7915 64.0443 31.0666V37.6171C64.0443 37.8939 64.2688 38.1166 64.5445 38.1166C64.8202 38.1166 65.0447 37.8939 65.0447 37.6171Z" fill="#28A922"/>
<path fill-rule="evenodd" clip-rule="evenodd" d="M51.9332 46.1537C51.9332 46.2973 51.9945 46.433 52.1017 46.5283C52.2089 46.623 52.3518 46.6676 52.4935 46.6504C52.5793 46.6397 52.6662 46.6343 52.7544 46.6343C54.0573 46.6343 55.0953 47.7925 55.0953 49.1967C55.0953 49.3009 55.0899 49.404 55.0786 49.5046C54.9726 50.4491 55.1649 51.4037 55.6288 52.2344C55.9308 52.7775 56.1017 53.4146 56.1017 54.0941C56.1017 56.0968 54.6123 57.7409 52.7544 57.7409C52.6609 57.7409 52.5686 57.7368 52.4775 57.7284C52.3381 57.7159 52.1994 57.763 52.0957 57.8577C51.9921 57.9523 51.9332 58.0863 51.9332 58.2269V65.6063C51.9332 65.8826 52.1571 66.1065 52.4334 66.1065H76.2534C76.5297 66.1065 76.753 65.8826 76.753 65.6063V42.3818C76.753 42.1055 76.5297 41.8816 76.2534 41.8816H52.4334C52.1571 41.8816 51.9332 42.1055 51.9332 42.3818V46.1537ZM52.933 58.7372C55.24 58.6366 57.1015 56.6041 57.1015 54.0941C57.1015 53.2366 56.8842 52.4339 56.5024 51.7478C56.5024 51.7472 56.5018 51.7473 56.5018 51.7467C56.1398 51.0982 55.9897 50.3532 56.0725 49.6148C56.0725 49.6142 56.0725 49.6142 56.0725 49.6136C56.088 49.4766 56.0957 49.3379 56.0957 49.1967C56.0957 47.2858 54.685 45.7393 52.933 45.6398V42.8821H75.7532V65.1061H52.933V58.7372Z" fill="#28A922"/>
<path fill-rule="evenodd" clip-rule="evenodd" d="M49.4823 52.4081L49.0269 51.7021C49.1053 51.5287 49.2798 51.4081 49.4823 51.4081H30.9935C30.7173 51.4081 30.4935 51.632 30.4935 51.9081V65.6043C30.4935 65.8804 30.7173 66.1043 30.9935 66.1043H50.049C50.3252 66.1043 50.549 65.8804 50.549 65.6043V57.0416C50.549 56.9127 50.4992 56.7885 50.4097 56.6954C49.7838 56.043 49.4043 55.1248 49.4043 54.1121C49.4043 53.4403 49.5713 52.8102 49.8639 52.2681L49.9353 52.1198L49.4823 52.4081ZM48.7065 52.4081C48.5116 52.9354 48.4043 53.5104 48.4043 54.1121C48.4043 55.3206 48.8371 56.4207 49.5492 57.236C49.549 57.2357 49.549 65.1043 49.549 65.1043H31.4933V52.4081H48.7065Z" fill="#28A922"/>
<path fill-rule="evenodd" clip-rule="evenodd" d="M0.720663 51.7647C0.719833 51.7656 0.719419 51.767 0.718589 51.7679C0.34163 52.4557 0.124329 53.2575 0.124329 54.1139C0.124329 56.6883 2.08336 58.7604 4.47201 58.7604C6.86108 58.7604 8.81969 56.6883 8.81969 54.1139C8.81969 53.2566 8.60198 52.4539 8.22046 51.7674C8.22004 51.767 8.22004 51.767 8.22004 51.7665C7.85801 51.118 7.70789 50.3725 7.79041 49.6346C7.79041 49.6341 7.79083 49.6337 7.79083 49.6332C7.80576 49.4965 7.81322 49.3575 7.81322 49.2167C7.81322 47.2403 6.30538 45.654 4.47201 45.654C2.63864 45.654 1.1308 47.2403 1.1308 49.2167C1.1308 49.3503 1.13785 49.4826 1.14656 49.6131C1.14739 49.6207 1.1478 49.6279 1.14863 49.635C1.23157 50.3725 1.08186 51.1171 0.720663 51.7647ZM1.59526 52.2492C2.0564 51.4215 2.24758 50.4708 2.14307 49.5291C2.13685 49.4303 2.13063 49.3244 2.13063 49.2167C2.13063 47.8124 3.16903 46.6543 4.47201 46.6543C5.77499 46.6543 6.81339 47.8124 6.81339 49.2167C6.81339 49.3208 6.80758 49.4232 6.7968 49.5242C6.69064 50.4686 6.88306 51.4233 7.34669 52.2541C7.649 52.7972 7.81986 53.4341 7.81986 54.1139C7.81986 56.1167 6.33027 57.7605 4.47201 57.7605C2.61375 57.7605 1.12458 56.1167 1.12458 54.1139C1.12458 53.4332 1.29585 52.7958 1.59526 52.2492Z" fill="#28A922"/>
<path fill-rule="evenodd" clip-rule="evenodd" d="M5.29316 58.2608V50.7188C5.29316 50.443 5.06866 50.2191 4.79294 50.2191C4.51723 50.2191 4.29272 50.443 4.29272 50.7188V58.2608C4.29272 58.5365 4.51723 58.761 4.79294 58.761C5.06866 58.761 5.29316 58.5365 5.29316 58.2608Z" fill="#28A922"/>
<path fill-rule="evenodd" clip-rule="evenodd" d="M52.9335 65.6068V51.9103C52.9335 51.6351 52.709 51.4107 52.4333 51.4107C52.1576 51.4107 51.9331 51.6351 51.9331 51.9103V65.6068C51.9331 65.8834 52.1576 66.1064 52.4333 66.1064C52.709 66.1064 52.9335 65.8834 52.9335 65.6068Z" fill="#28A922"/>
<path fill-rule="evenodd" clip-rule="evenodd" d="M55.3166 21.5401C55.3166 21.2639 55.0928 21.04 54.8167 21.04H26.2323C25.9562 21.04 25.7323 21.2639 25.7323 21.5401V23.9229C25.7323 24.1991 25.9562 24.4231 26.2323 24.4231H54.8167C55.0928 24.4231 55.3166 24.1991 55.3166 23.9229V21.5401ZM54.3167 22.0403V23.4228C54.3167 23.4228 26.7324 23.4228 26.7324 23.4228V22.0403L54.3167 22.0403Z" fill="#28A922"/>
<path fill-rule="evenodd" clip-rule="evenodd" d="M79.8718 21.5401C79.8718 21.2639 79.6479 21.04 79.3718 21.04H54.8133C54.5371 21.04 54.3133 21.2639 54.3133 21.5401V23.9229C54.3133 24.1991 54.5371 24.4231 54.8133 24.4231H79.3718C79.6479 24.4231 79.8718 24.1991 79.8718 23.9229V21.5401ZM78.8718 22.0403V23.4228C78.8718 23.4228 55.3133 23.4228 55.3133 23.4228V22.0403H78.8718Z" fill="#28A922"/>
<path fill-rule="evenodd" clip-rule="evenodd" d="M30.9949 54.792H48.8599C49.1356 54.792 49.3601 54.5681 49.3601 54.2917C49.3601 54.016 49.1356 53.7921 48.8599 53.7921H30.9949C30.7192 53.7921 30.4947 54.016 30.4947 54.2917C30.4947 54.5681 30.7192 54.792 30.9949 54.792Z" fill="#28A922"/>
<path fill-rule="evenodd" clip-rule="evenodd" d="M30.9952 57.1752H49.5919C49.8678 57.1752 50.0922 56.9509 50.0922 56.6749C50.0922 56.3988 49.8678 56.1751 49.5919 56.1751H30.9952C30.7194 56.1751 30.495 56.3988 30.495 56.6749C30.495 56.9509 30.7194 57.1752 30.9952 57.1752Z" fill="#28A922"/>
<path fill-rule="evenodd" clip-rule="evenodd" d="M30.9947 59.5561H50.0507C50.327 59.5561 50.5506 59.3322 50.5506 59.0559C50.5506 58.7802 50.327 58.5563 50.0507 58.5563H30.9947C30.719 58.5563 30.4948 58.7802 30.4948 59.0559C30.4948 59.3322 30.719 59.5561 30.9947 59.5561Z" fill="#28A922"/>
<path fill-rule="evenodd" clip-rule="evenodd" d="M30.9947 61.9378H50.0507C50.327 61.9378 50.5506 61.7139 50.5506 61.4376C50.5506 61.1619 50.327 60.938 50.0507 60.938H30.9947C30.719 60.938 30.4948 61.1619 30.4948 61.4376C30.4948 61.7139 30.719 61.9378 30.9947 61.9378Z" fill="#28A922"/>
<path fill-rule="evenodd" clip-rule="evenodd" d="M49.0022 51.7447C49.0014 51.7456 49.001 51.747 49.0002 51.7479C48.6232 52.4357 48.4059 53.2375 48.4059 54.0939C48.4059 56.6683 50.3649 58.7404 52.7536 58.7404C55.1427 58.7404 57.1013 56.6683 57.1013 54.0939C57.1013 53.2366 56.8836 52.4339 56.502 51.7474C56.5016 51.747 56.5016 51.747 56.5016 51.7465C56.1396 51.098 55.9895 50.3525 56.072 49.6146C56.072 49.6141 56.0724 49.6137 56.0724 49.6132C56.0873 49.4765 56.0948 49.3375 56.0948 49.1967C56.0948 47.2203 54.587 45.634 52.7536 45.634C50.9202 45.634 49.4124 47.2203 49.4124 49.1967C49.4124 49.3303 49.4194 49.4626 49.4281 49.5931C49.429 49.6007 49.4294 49.6079 49.4302 49.615C49.5132 50.3525 49.3634 51.0971 49.0022 51.7447ZM49.8768 52.2292C50.338 51.4015 50.5292 50.4508 50.4247 49.5091C50.4184 49.4103 50.4122 49.3044 50.4122 49.1967C50.4122 47.7924 51.4506 46.6343 52.7536 46.6343C54.0566 46.6343 55.095 47.7924 55.095 49.1967C55.095 49.3008 55.0892 49.4032 55.0784 49.5042C54.9722 50.4486 55.1646 51.4033 55.6283 52.2341C55.9306 52.7772 56.1014 53.4141 56.1014 54.0939C56.1014 56.0967 54.6119 57.7405 52.7536 57.7405C50.8953 57.7405 49.4062 56.0967 49.4062 54.0939C49.4062 53.4132 49.5774 52.7758 49.8768 52.2292Z" fill="#28A922"/>
<path fill-rule="evenodd" clip-rule="evenodd" d="M28.1115 21.5392C28.1115 21.8154 28.3353 22.0392 28.6116 22.0392H52.4311C52.7072 22.0392 52.9311 21.8154 52.9311 21.5392V19.4551C52.9311 19.2837 52.8433 19.1241 52.6984 19.0325L40.9282 11.5889C40.7665 11.4868 40.5608 11.4857 40.3981 11.5862L28.3487 19.0297C28.2013 19.1208 28.1115 19.2818 28.1115 19.4551V21.5392ZM29.1115 21.0393V19.734L40.6578 12.6012L51.9311 19.7305C51.9312 19.7305 51.9312 21.0393 51.9312 21.0393H29.1115Z" fill="#28A922"/>
</g>
<defs>
<clipPath id="clip0_1_229">
<rect width="80" height="80" fill="white"/>
</clipPath>
</defs>
</svg>
