<svg width="40" height="40" viewBox="0 0 40 40" fill="none" xmlns="http://www.w3.org/2000/svg">
<rect x="7" y="6" width="25" height="27" fill="#434142"/>
<path d="M35 3.33337H4.99998C4.55795 3.33337 4.13403 3.50897 3.82147 3.82153C3.50891 4.13409 3.33331 4.55801 3.33331 5.00004V35C3.33331 35.4421 3.50891 35.866 3.82147 36.1786C4.13403 36.4911 4.55795 36.6667 4.99998 36.6667H35C35.442 36.6667 35.8659 36.4911 36.1785 36.1786C36.4911 35.866 36.6666 35.4421 36.6666 35V5.00004C36.6666 4.55801 36.4911 4.13409 36.1785 3.82153C35.8659 3.50897 35.442 3.33337 35 3.33337ZM27.1283 19.7584C26.5516 23.3717 25.925 27.3217 25.925 27.3217C25.925 27.3217 25.8283 28.43 25.01 28.6217C24.1332 28.6083 23.2859 28.3033 22.6016 27.755C22.4083 27.61 18.9883 25.4434 17.7366 24.3834C17.609 24.2972 17.5052 24.1801 17.4351 24.0429C17.365 23.9058 17.3307 23.7532 17.3355 23.5992C17.3404 23.4453 17.3841 23.295 17.4627 23.1626C17.5413 23.0301 17.6522 22.9197 17.785 22.8417C19.5183 21.2517 21.59 19.2767 22.8416 18.025C23.42 17.4467 23.9983 16.0984 21.59 17.7367C18.17 20.0967 14.7983 22.3117 14.7983 22.3117C14.4511 22.4684 14.0758 22.5534 13.6949 22.5617C13.314 22.57 12.9354 22.5014 12.5816 22.36C11.1366 21.9267 9.45165 21.3484 9.45165 21.3484C9.45165 21.3484 8.29498 20.6267 10.27 19.8484C10.27 19.8484 18.6033 16.4284 21.4933 15.225C22.6016 14.7434 26.3583 13.2017 26.3583 13.2017C26.3583 13.2017 28.0933 12.5267 27.9483 14.165C27.9 14.8467 27.515 17.2067 27.1283 19.7584Z" fill="white"/>
</svg>
