<svg width="42" height="42" viewBox="0 0 42 42" fill="none" xmlns="http://www.w3.org/2000/svg">
<path d="M34.9999 4.19995H7.00015C5.46043 4.19995 4.20001 5.46037 4.20001 7.00009V34.9998C4.20001 36.5395 5.46043 37.7999 7.00015 37.7999H34.9999C36.5396 37.7999 37.8 36.5395 37.8 34.9998V7.00009C37.8 5.46037 36.5396 4.19995 34.9999 4.19995ZM32.9629 28.35H29.2249L26.6083 25.7443C24.9757 24.139 24.2785 24.0135 23.8825 24.0135C23.5297 24.0135 23.2861 24.276 23.2861 24.8896V27.3441C23.2861 28.066 22.8707 28.3504 21.1563 28.3504C18.3397 28.3504 15.217 26.6196 12.8436 23.4217C9.30217 18.666 8.40001 15.1183 8.40001 14.3513C8.40001 13.9343 8.70871 13.65 9.12703 13.65H12.9742L13.3052 14.6588C14.6232 18.5131 16.9773 21.9076 17.9676 21.9076C18.3393 21.9076 18.383 21.6026 18.383 20.8139V16.8928C18.383 14.9923 17.3057 14.8339 17.3057 14.1309V13.65H23.1983V19.9378C23.1983 20.5447 23.3243 20.7702 23.5948 20.7702C23.9312 20.7702 24.2399 20.5682 24.8497 19.8937C26.7448 17.8117 28.3005 14.5059 28.3005 14.5059L28.6285 13.8028H32.2816C32.8528 13.8028 33.0939 14.112 32.9843 14.6588C32.6533 16.1901 29.3341 20.8576 29.3341 20.8576C29.0279 21.3402 28.8939 21.6026 29.3341 22.0621C29.6428 22.4569 30.6109 23.312 31.2014 24.1008C32.6533 25.6334 33.5996 26.9257 33.5996 27.6498C33.6 28.1971 33.2938 28.35 32.9629 28.35Z" fill="white"/>
</svg>
