<svg width="86" height="86" viewBox="0 0 86 86" fill="none" xmlns="http://www.w3.org/2000/svg">
<rect width="86" height="86" rx="43" fill="#F6F6F6"/>
<path d="M64.4844 46.4375C64.8491 46.1835 65.1465 45.8445 65.3507 45.4497C65.5549 45.0549 65.6598 44.6163 65.6562 44.1719C65.6562 43.6905 65.5254 43.2181 65.2777 42.8053C65.03 42.3924 64.6748 42.0547 64.25 41.8281L53.9375 32.9219C53.6922 32.6475 53.3909 32.4289 53.054 32.2806C52.7171 32.1324 52.3524 32.058 51.9844 32.0625H24.25C23.214 32.0625 22.2204 32.4741 21.4879 33.2066C20.7553 33.9392 20.3438 34.9328 20.3438 35.9688V37.5313C20.3497 38.1366 20.4935 38.7327 20.7642 39.2742C21.0349 39.8156 21.4255 40.2883 21.9062 40.6563C21.4255 41.0242 21.0349 41.4969 20.7642 42.0384C20.4935 42.5798 20.3497 43.1759 20.3438 43.7813V45.3438C20.3473 46.0165 20.5211 46.6773 20.8489 47.2647C21.1768 47.8522 21.648 48.347 22.2188 48.7031L32.5312 57.6094H32.6094C33.3031 58.2716 34.2285 58.6362 35.1875 58.625H62.9219C63.6471 58.625 64.3426 58.3369 64.8554 57.8241C65.3682 57.3113 65.6562 56.6158 65.6562 55.8906C65.6598 55.4462 65.5549 55.0076 65.3507 54.6128C65.1465 54.218 64.8491 53.879 64.4844 53.625C65.2322 52.8798 65.6537 51.8682 65.6562 50.8125V49.25C65.6537 48.1943 65.2322 47.1827 64.4844 46.4375ZM21.9062 35.9688C21.8953 35.658 21.9485 35.3484 22.0624 35.0591C22.1763 34.7698 22.3486 34.507 22.5684 34.2872C22.7883 34.0673 23.051 33.8951 23.3403 33.7812C23.6296 33.6673 23.9393 33.6141 24.25 33.625H51.9844C52.3109 33.6379 52.6194 33.7781 52.8438 34.0156C52.8645 34.0156 52.8843 34.0239 52.899 34.0385C52.9136 34.0532 52.9219 34.073 52.9219 34.0938L61.4375 41.4375H35.1875C34.1515 41.4375 33.1579 41.8491 32.4254 42.5816C31.6928 43.3142 31.2812 44.3078 31.2812 45.3438V46.5938L23.2344 39.6406C22.8426 39.4424 22.512 39.1415 22.2781 38.7699C22.0442 38.3984 21.9156 37.9702 21.9062 37.5313V35.9688ZM21.9062 45.3438V43.7813C21.8903 43.3468 21.9996 42.9169 22.2212 42.5429C22.4429 42.1688 22.7675 41.8665 23.1562 41.6719L32.5312 49.7188L32.8438 50.0313C32.363 50.3992 31.9724 50.8719 31.7017 51.4134C31.431 51.9548 31.2872 52.5509 31.2812 53.1563V54.4063L23.2344 47.4531C22.8426 47.2549 22.512 46.954 22.2781 46.5824C22.0442 46.2109 21.9156 45.7827 21.9062 45.3438ZM62.9219 54.7188C63.2327 54.7188 63.5307 54.8422 63.7505 55.062C63.9703 55.2818 64.0938 55.5798 64.0938 55.8906C64.0938 56.2014 63.9703 56.4995 63.7505 56.7193C63.5307 56.939 63.2327 57.0625 62.9219 57.0625H35.1875C34.8768 57.0734 34.5671 57.0203 34.2778 56.9063C33.9885 56.7924 33.7258 56.6202 33.5059 56.4003C33.2861 56.1805 33.1138 55.9177 32.9999 55.6284C32.886 55.3391 32.8328 55.0295 32.8438 54.7188V53.1563C32.8328 52.8455 32.886 52.5359 32.9999 52.2466C33.1138 51.9573 33.2861 51.6945 33.5059 51.4747C33.7258 51.2548 33.9885 51.0826 34.2778 50.9687C34.5671 50.8548 34.8768 50.8016 35.1875 50.8125H59.9531C59.9838 51.1942 60.09 51.566 60.2656 51.9063L61.6719 51.2813C61.3581 50.4775 61.3581 49.5851 61.6719 48.7813L60.2656 48.1563C60.09 48.4965 59.9838 48.8683 59.9531 49.25H35.1875C34.8793 49.2599 34.5726 49.202 34.2892 49.0805C34.0057 48.959 33.7523 48.7769 33.5469 48.5469C33.3169 48.3414 33.1347 48.0881 33.0132 47.8046C32.8917 47.5211 32.8339 47.2145 32.8438 46.9063V45.3438C32.8328 45.033 32.886 44.7234 32.9999 44.4341C33.1138 44.1448 33.2861 43.882 33.5059 43.6622C33.7258 43.4423 33.9885 43.2701 34.2778 43.1562C34.5671 43.0423 34.8768 42.9891 35.1875 43H62.9219C63.2327 43 63.5307 43.1235 63.7505 43.3432C63.9703 43.563 64.0938 43.8611 64.0938 44.1719C64.0938 44.4827 63.9703 44.7808 63.7505 45.0005C63.5307 45.2203 63.2327 45.3438 62.9219 45.3438H37.375C37.307 44.9698 37.2024 44.6034 37.0625 44.25L35.6562 44.875C35.97 45.6788 35.97 46.5712 35.6562 47.375L37.0625 48C37.2024 47.6466 37.307 47.2802 37.375 46.9063H61.75C62.0607 46.8953 62.3704 46.9485 62.6597 47.0624C62.949 47.1764 63.2117 47.3486 63.4316 47.5684C63.6514 47.7883 63.8237 48.051 63.9376 48.3403C64.0515 48.6296 64.1047 48.9393 64.0938 49.25V50.8125C64.1047 51.1232 64.0515 51.4329 63.9376 51.7222C63.8237 52.0115 63.6514 52.2742 63.4316 52.4941C63.2117 52.7139 62.949 52.8862 62.6597 53.0001C62.3704 53.114 62.0607 53.1672 61.75 53.1563H37.375C37.307 52.7823 37.2024 52.4159 37.0625 52.0625L35.6562 52.6875C35.97 53.4913 35.97 54.3837 35.6562 55.1875L37.0625 55.8125C37.2024 55.4591 37.307 55.0927 37.375 54.7188H62.9219Z" fill="#28A922"/>
</svg>
