<svg width="86" height="86" viewBox="0 0 86 86" fill="none" xmlns="http://www.w3.org/2000/svg">
<rect width="86" height="86" rx="43" fill="#F6F6F6"/>
<path d="M24.25 54.9791H61.75C62.3229 54.9791 62.7917 54.5104 62.7917 53.9375C62.7917 53.3646 62.3229 52.8958 61.75 52.8958H60.6563C60.2188 45.375 55.0833 39.1041 48.1354 36.9896C48.1771 36.7396 48.2083 36.4896 48.2083 36.2291C48.2083 33.3541 45.875 31.0208 43 31.0208C40.125 31.0208 37.7917 33.3541 37.7917 36.2291C37.7917 36.4896 37.8229 36.7396 37.8646 36.9896C30.9167 39.1041 25.7813 45.375 25.3438 52.8958H24.25C23.6771 52.8958 23.2083 53.3646 23.2083 53.9375C23.2083 54.5104 23.6771 54.9791 24.25 54.9791ZM43 33.1041C44.7188 33.1041 46.125 34.5104 46.125 36.2291C46.125 36.3229 46.1042 36.4166 46.0938 36.5208C45.0833 36.3437 44.0521 36.2291 43 36.2291C41.9479 36.2291 40.9063 36.3437 39.9063 36.5208C39.8958 36.4166 39.875 36.3229 39.875 36.2291C39.875 34.5104 41.2813 33.1041 43 33.1041ZM43 38.3125C51.2604 38.3125 58.0313 44.7708 58.5729 52.8958H27.4271C27.9688 44.7708 34.7396 38.3125 43 38.3125Z" fill="#28A922"/>
<path d="M45.0833 40.3958C44.5104 40.3958 44.0417 40.8646 44.0417 41.4375C44.0417 42.0104 44.5104 42.4791 45.0833 42.4791C49.6771 42.4791 53.4167 46.2187 53.4167 50.8125C53.4167 51.3854 53.8854 51.8541 54.4583 51.8541C55.0312 51.8541 55.5 51.3854 55.5 50.8125C55.5 45.0729 50.8229 40.3958 45.0833 40.3958Z" fill="#28A922"/>
</svg>
