<svg width="86" height="86" viewBox="0 0 86 86" fill="none" xmlns="http://www.w3.org/2000/svg">
<rect width="86" height="86" rx="43" fill="#F6F6F6"/>
<path d="M23.4688 35.9688H20.3438V65.6562H23.4688V35.9688Z" fill="#F6F6F6"/>
<path d="M32.0625 35.9688H28.9375V55.5H32.0625V35.9688Z" fill="#F6F6F6"/>
<path d="M53.9375 55.5H57.0625V35.9688H53.9375V55.5Z" fill="#F6F6F6"/>
<path d="M62.5312 65.6562H65.6562V35.9688H62.5312V65.6562Z" fill="#F6F6F6"/>
<path d="M20.3438 31.2812L43 20.3438L65.6562 31.2812H20.3438Z" fill="#F6F6F6"/>
<path d="M65.6562 31.2812H20.3438V35.9688H65.6562V31.2812Z" fill="#F6F6F6"/>
<path d="M24.25 42.2188C22.5215 42.2188 21.125 40.8223 21.125 39.0938V35.9688H27.375V39.0938C27.375 40.8223 25.9785 42.2188 24.25 42.2188Z" fill="#F6F6F6"/>
<path d="M30.5 42.2188C28.7715 42.2188 27.375 40.8223 27.375 39.0938V35.9688H33.625V39.0938C33.625 40.8223 32.2285 42.2188 30.5 42.2188Z" fill="#F6F6F6"/>
<path d="M36.75 42.2188C35.0215 42.2188 33.625 40.8223 33.625 39.0938V35.9688H39.875V39.0938C39.875 40.8223 38.4785 42.2188 36.75 42.2188Z" fill="#F6F6F6"/>
<path d="M43 42.2188C41.2715 42.2188 39.875 40.8223 39.875 39.0938V35.9688H46.125V39.0938C46.125 40.8223 44.7285 42.2188 43 42.2188Z" fill="#F6F6F6"/>
<path d="M49.25 42.2188C47.5215 42.2188 46.125 40.8223 46.125 39.0938V35.9688H52.375V39.0938C52.375 40.8223 50.9785 42.2188 49.25 42.2188Z" fill="#F6F6F6"/>
<path d="M55.5 42.2188C53.7715 42.2188 52.375 40.8223 52.375 39.0938V35.9688H58.625V39.0938C58.625 40.8223 57.2285 42.2188 55.5 42.2188Z" fill="#F6F6F6"/>
<path d="M61.75 42.2188C60.0215 42.2188 58.625 40.8223 58.625 39.0938V35.9688H64.875V39.0938C64.875 40.8223 63.4785 42.2188 61.75 42.2188Z" fill="#F6F6F6"/>
<path d="M66.4375 31.2715C66.4375 30.9785 66.2715 30.7051 65.998 30.5781L43.3418 19.6406C43.127 19.5332 42.873 19.5332 42.6582 19.6406L20.002 30.5781C19.748 30.7051 19.582 30.9492 19.5625 31.2227V31.2324C19.5625 31.2422 19.5625 31.2617 19.5625 31.2715V31.2812V35.9687V65.6562C19.5625 66.0859 19.9141 66.4375 20.3438 66.4375H23.4688C23.8984 66.4375 24.25 66.0859 24.25 65.6562V43C25.5293 43 26.6621 42.3848 27.375 41.4375C27.5996 41.7305 27.8633 41.9941 28.1562 42.2187V55.5C28.1562 55.9297 28.5078 56.2812 28.9375 56.2812H32.0625C32.4922 56.2812 32.8438 55.9297 32.8438 55.5V42.2187C33.1367 41.9941 33.4004 41.7305 33.625 41.4375C34.3379 42.3848 35.4707 43 36.75 43C38.0293 43 39.1621 42.3848 39.875 41.4375C40.5879 42.3848 41.7207 43 43 43C44.2793 43 45.4121 42.3848 46.125 41.4375C46.8379 42.3848 47.9707 43 49.25 43C50.5293 43 51.6621 42.3848 52.375 41.4375C52.5996 41.7305 52.8633 41.9941 53.1562 42.2187V55.5C53.1562 55.9297 53.5078 56.2812 53.9375 56.2812H57.0625C57.4922 56.2812 57.8438 55.9297 57.8438 55.5V42.2187C58.1367 41.9941 58.4004 41.7305 58.625 41.4375C59.3379 42.3848 60.4707 43 61.75 43V65.6562C61.75 66.0859 62.1016 66.4375 62.5312 66.4375H65.6562C66.0859 66.4375 66.4375 66.0859 66.4375 65.6562V35.9687V31.2715C66.4375 31.2812 66.4375 31.2715 66.4375 31.2715ZM58.625 35.1875H57.0625H53.9375H52.375H46.125H39.875H33.625H32.0625H28.9375H27.375H23.4688H21.125V32.0625H64.875V35.1875H62.5312H58.625ZM43 21.2129L62.2383 30.5H23.7617L43 21.2129ZM22.6875 64.875H21.125V41.4375C21.5254 41.9746 22.0625 42.4043 22.6875 42.6777V64.875ZM24.25 41.4375C22.9609 41.4375 21.9062 40.3828 21.9062 39.0937V36.75H23.4688H26.5938V39.0937C26.5938 40.3828 25.5391 41.4375 24.25 41.4375ZM31.2812 54.7187H29.7188V42.9219C29.9727 42.9707 30.2363 43 30.5 43C30.7637 43 31.0273 42.9707 31.2812 42.9219V54.7187ZM30.5 41.4375C29.2109 41.4375 28.1562 40.3828 28.1562 39.0937V36.75H28.9375H32.0625H32.8438V39.0937C32.8438 40.3828 31.7891 41.4375 30.5 41.4375ZM36.75 41.4375C35.4609 41.4375 34.4062 40.3828 34.4062 39.0937V36.75H39.0938V39.0937C39.0938 40.3828 38.0391 41.4375 36.75 41.4375ZM43 41.4375C41.7109 41.4375 40.6562 40.3828 40.6562 39.0937V36.75H45.3438V39.0937C45.3438 40.3828 44.2891 41.4375 43 41.4375ZM49.25 41.4375C47.9609 41.4375 46.9062 40.3828 46.9062 39.0937V36.75H51.5938V39.0937C51.5938 40.3828 50.5391 41.4375 49.25 41.4375ZM56.2812 54.7187H54.7188V42.9219C54.9727 42.9707 55.2363 43 55.5 43C55.7637 43 56.0273 42.9707 56.2812 42.9219V54.7187ZM55.5 41.4375C54.2109 41.4375 53.1562 40.3828 53.1562 39.0937V36.75H53.9375H57.0625H57.8438V39.0937C57.8438 40.3828 56.7891 41.4375 55.5 41.4375ZM59.4062 39.0937V36.75H62.5312H64.0938V39.0937C64.0938 40.3828 63.0391 41.4375 61.75 41.4375C60.4609 41.4375 59.4062 40.3828 59.4062 39.0937ZM63.3125 64.875V42.6777C63.9375 42.4043 64.4746 41.9746 64.875 41.4375V64.875H63.3125Z" fill="#28A922"/>
</svg>
