<svg width="86" height="86" viewBox="0 0 86 86" fill="none" xmlns="http://www.w3.org/2000/svg">
<rect width="86" height="86" rx="43" fill="#F6F6F6"/>
<g clip-path="url(#clip0_12_5)">
<path d="M65.3145 62.6289H64.0938V23.6152C64.0927 22.9033 63.8094 22.2208 63.306 21.7174C62.8026 21.214 62.1201 20.9307 61.4082 20.9297H50.0801V20.1973C50.0801 19.6145 49.8486 19.0556 49.4365 18.6436C49.0244 18.2315 48.4656 18 47.8828 18C47.3001 18 46.7412 18.2315 46.3291 18.6436C45.917 19.0556 45.6855 19.6145 45.6855 20.1973V20.9297H40.3145V20.1973C40.3145 19.6145 40.083 19.0556 39.6709 18.6436C39.2588 18.2315 38.6999 18 38.1172 18C37.5344 18 36.9756 18.2315 36.5635 18.6436C36.1514 19.0556 35.9199 19.6145 35.9199 20.1973V20.9297H24.5918C23.8799 20.9307 23.1974 21.214 22.694 21.7174C22.1906 22.2208 21.9073 22.9033 21.9062 23.6152V62.6289H20.6855C19.9736 62.6299 19.2911 62.9132 18.7877 63.4166C18.2843 63.92 18.001 64.6025 18 65.3145V67.2676C18 67.4618 18.0772 67.6481 18.2145 67.7855C18.3519 67.9228 18.5382 68 18.7324 68H67.2676C67.4618 68 67.6481 67.9228 67.7855 67.7855C67.9228 67.6481 68 67.4618 68 67.2676V65.3145C67.999 64.6025 67.7157 63.92 67.2123 63.4166C66.7089 62.9132 66.0264 62.6299 65.3145 62.6289ZM61.4082 22.3945C61.7318 22.395 62.042 22.5238 62.2708 22.7526C62.4996 22.9815 62.6284 23.2916 62.6289 23.6152V62.6289H61.1641V24.5918C61.1641 24.3975 61.0869 24.2113 60.9495 24.0739C60.8122 23.9365 60.6259 23.8594 60.4316 23.8594H50.0801V22.3945H61.4082ZM37.3848 28.1279V37.3848H37.1406C36.6875 37.3853 36.2531 37.5655 35.9328 37.8859C35.6124 38.2063 35.4322 38.6407 35.4316 39.0938V48.8594C35.4322 49.3125 35.6124 49.7469 35.9328 50.0672C36.2531 50.3876 36.6875 50.5678 37.1406 50.5684H37.3848V53.0098H35.1875C34.9932 53.0098 34.807 53.0869 34.6696 53.2243C34.5322 53.3616 34.4551 53.5479 34.4551 53.7422V55.6953C34.4561 56.4072 34.7394 57.0897 35.2428 57.5931C35.7462 58.0966 36.4287 58.3798 37.1406 58.3809H48.8594C49.5713 58.3798 50.2538 58.0966 50.7572 57.5931C51.2606 57.0897 51.5439 56.4072 51.5449 55.6953V53.7422C51.5449 53.5479 51.4678 53.3616 51.3304 53.2243C51.193 53.0869 51.0068 53.0098 50.8125 53.0098H48.6152V50.5684H48.8594C49.3125 50.5678 49.7469 50.3876 50.0672 50.0672C50.3876 49.7469 50.5678 49.3125 50.5684 48.8594V39.0938C50.5678 38.6407 50.3876 38.2063 50.0672 37.8859C49.7469 37.5655 49.3125 37.3853 48.8594 37.3848H48.6152V28.1279C49.0433 27.976 49.4138 27.6954 49.6761 27.3245C49.9383 26.9537 50.0794 26.5108 50.0801 26.0566V25.3242H59.6992V62.6289H26.3008V25.3242H35.9199V26.0566C35.9206 26.5108 36.0617 26.9537 36.3239 27.3245C36.5862 27.6954 36.9567 27.976 37.3848 28.1279ZM40.3145 26.0566V25.3242H45.6855V26.0566C45.6862 26.5108 45.8273 26.9537 46.0896 27.3245C46.3518 27.6954 46.7224 27.976 47.1504 28.1279V37.3848H38.8496V28.1279C39.2776 27.976 39.6482 27.6954 39.9104 27.3245C40.1727 26.9537 40.3138 26.5108 40.3145 26.0566ZM50.0801 54.4746V55.6953C50.0796 56.0189 49.9508 56.3291 49.722 56.5579C49.4932 56.7867 49.183 56.9155 48.8594 56.916H37.1406C36.817 56.9155 36.5068 56.7867 36.278 56.5579C36.0492 56.3291 35.9204 56.0189 35.9199 55.6953V54.4746H50.0801ZM38.8496 53.0098V50.5684H47.1504V53.0098H38.8496ZM37.1406 49.1035C37.0759 49.1035 37.0138 49.0778 36.968 49.032C36.9222 48.9862 36.8965 48.9241 36.8965 48.8594V39.0938C36.8965 39.029 36.9222 38.9669 36.968 38.9211C37.0138 38.8753 37.0759 38.8496 37.1406 38.8496H48.8594C48.9241 38.8496 48.9862 38.8753 49.032 38.9211C49.0778 38.9669 49.1035 39.029 49.1035 39.0938V48.8594C49.1035 48.9241 49.0778 48.9862 49.032 49.032C48.9862 49.0778 48.9241 49.1035 48.8594 49.1035H37.1406ZM47.1504 20.1973C47.1504 20.003 47.2276 19.8167 47.3649 19.6794C47.5023 19.542 47.6886 19.4648 47.8828 19.4648C48.0771 19.4648 48.2634 19.542 48.4007 19.6794C48.5381 19.8167 48.6152 20.003 48.6152 20.1973V26.0566C48.6152 26.2509 48.5381 26.4372 48.4007 26.5745C48.2634 26.7119 48.0771 26.7891 47.8828 26.7891C47.6886 26.7891 47.5023 26.7119 47.3649 26.5745C47.2276 26.4372 47.1504 26.2509 47.1504 26.0566V20.1973ZM45.6855 22.3945V23.8594H40.3145V22.3945H45.6855ZM37.3848 20.1973C37.3848 20.003 37.4619 19.8167 37.5993 19.6794C37.7366 19.542 37.9229 19.4648 38.1172 19.4648C38.3114 19.4648 38.4977 19.542 38.6351 19.6794C38.7724 19.8167 38.8496 20.003 38.8496 20.1973V26.0566C38.8496 26.2509 38.7724 26.4372 38.6351 26.5745C38.4977 26.7119 38.3114 26.7891 38.1172 26.7891C37.9229 26.7891 37.7366 26.7119 37.5993 26.5745C37.4619 26.4372 37.3848 26.2509 37.3848 26.0566V20.1973ZM23.3711 23.6152C23.3716 23.2916 23.5004 22.9815 23.7292 22.7526C23.958 22.5238 24.2682 22.395 24.5918 22.3945H35.9199V23.8594H25.5684C25.3741 23.8594 25.1878 23.9365 25.0505 24.0739C24.9131 24.2113 24.8359 24.3975 24.8359 24.5918V62.6289H23.3711V23.6152ZM66.5352 66.5352H19.4648V65.3145C19.4654 64.9909 19.5941 64.6807 19.8229 64.4519C20.0518 64.223 20.362 64.0943 20.6855 64.0938H65.3145C65.638 64.0943 65.9482 64.223 66.1771 64.4519C66.4059 64.6807 66.5346 64.9909 66.5352 65.3145V66.5352Z" fill="#28A922"/>
<path d="M44.9531 41.7793H41.0469C40.4641 41.7793 39.9052 42.0108 39.4932 42.4229C39.0811 42.8349 38.8496 43.3938 38.8496 43.9766C38.8496 44.5593 39.0811 45.1182 39.4932 45.5303C39.9052 45.9423 40.4641 46.1738 41.0469 46.1738H44.9531C45.5359 46.1738 46.0948 45.9423 46.5068 45.5303C46.9189 45.1182 47.1504 44.5593 47.1504 43.9766C47.1504 43.3938 46.9189 42.8349 46.5068 42.4229C46.0948 42.0108 45.5359 41.7793 44.9531 41.7793ZM44.9531 44.709H41.0469C40.8526 44.709 40.6663 44.6318 40.529 44.4945C40.3916 44.3571 40.3145 44.1708 40.3145 43.9766C40.3145 43.7823 40.3916 43.596 40.529 43.4587C40.6663 43.3213 40.8526 43.2441 41.0469 43.2441H44.9531C45.1474 43.2441 45.3337 43.3213 45.471 43.4587C45.6084 43.596 45.6855 43.7823 45.6855 43.9766C45.6855 44.1708 45.6084 44.3571 45.471 44.4945C45.3337 44.6318 45.1474 44.709 44.9531 44.709Z" fill="#28A922"/>
</g>
<defs>
<clipPath id="clip0_12_5">
<rect width="50" height="50" fill="white" transform="translate(18 18)"/>
</clipPath>
</defs>
</svg>
