<svg width="86" height="86" viewBox="0 0 86 86" fill="none" xmlns="http://www.w3.org/2000/svg">
<rect width="86" height="86" rx="43" fill="#F6F6F6"/>
<path d="M67.468 49.0481C66.5169 47.6505 64.6017 47.2805 63.1997 48.2227L56.8188 52.493L56.8003 39.201L59.0171 41.2777C59.4885 41.7192 60.1031 41.9622 60.7484 41.9622C60.7496 41.9622 60.751 41.9622 60.7522 41.9622C61.4489 41.9612 62.1216 41.6692 62.5978 41.1609C63.0604 40.6671 63.303 40.0227 63.281 39.3464C63.2589 38.67 62.9747 38.0427 62.4809 37.5801L58.2782 33.6432C57.9905 33.3737 57.5389 33.3884 57.2694 33.6761C57 33.9638 57.0147 34.4154 57.3023 34.6849L61.505 38.6218C61.7206 38.8238 61.8446 39.0976 61.8543 39.3928C61.8639 39.6881 61.758 39.9694 61.556 40.1849C61.345 40.4101 61.0589 40.5343 60.7501 40.5347C60.7495 40.5347 60.749 40.5347 60.7484 40.5347C60.4669 40.5347 60.1986 40.4287 59.9929 40.2359C59.9928 40.2358 59.9928 40.2358 59.9928 40.2358L43.3051 24.6031C43.0301 24.3456 42.6021 24.346 42.3278 24.6045L25.6835 40.2839C25.4686 40.4865 25.1875 40.5925 24.8922 40.5843C24.5969 40.5756 24.3228 40.4522 24.1202 40.2371C23.9177 40.0221 23.8109 39.7411 23.8198 39.4459C23.8286 39.1506 23.952 38.8764 24.1669 38.6739L42.0553 21.8225C42.4793 21.423 43.1445 21.422 43.5696 21.8205L54.0352 31.6244C54.3228 31.8938 54.7744 31.8792 55.0439 31.5915C55.3134 31.3038 55.2986 30.8522 55.011 30.5827L44.5456 20.7788C43.5717 19.8663 42.0479 19.8683 41.0766 20.7836L35.3501 26.1781L35.3485 25.2159C35.3481 24.9126 35.2296 24.6276 35.0148 24.4135C34.8005 24.1998 34.5159 24.0821 34.2132 24.0821C34.2126 24.0821 34.2121 24.0821 34.2115 24.0821L30.1151 24.0879C29.8118 24.0882 29.527 24.2068 29.3128 24.4215C29.0987 24.6363 28.981 24.9215 28.9814 25.225L28.9928 32.1671L23.1882 37.6351C22.6956 38.0991 22.4133 38.7271 22.3931 39.4035C22.3729 40.0798 22.6173 40.7236 23.0813 41.216C23.5451 41.7086 24.1731 41.991 24.8496 42.0112C24.8755 42.012 24.9014 42.0124 24.9272 42.0124C25.5752 42.0124 26.1888 41.7692 26.6623 41.3229L28.8741 39.2393L28.8829 45.5177C28.1673 45.4135 27.4433 45.3589 26.7159 45.3589H25.4947V44.9309C25.4947 43.4943 24.3259 42.3255 22.8893 42.3255H20.6055C19.1688 42.3254 18 43.4941 18 44.9308V56.1142C18 56.5084 18.3195 56.8279 18.7137 56.8279C19.1078 56.8279 19.4273 56.5084 19.4273 56.1142V44.9308C19.4273 44.2812 19.9559 43.7527 20.6055 43.7527H22.8892C23.5388 43.7527 24.0673 44.2812 24.0673 44.9308V46.0724V60.7009V61.8313C24.0673 62.4809 23.5388 63.0094 22.8892 63.0094H20.6055C19.9559 63.0094 19.4273 62.4809 19.4273 61.8313V60.5825C19.4273 60.1883 19.1078 59.8688 18.7137 59.8688C18.3195 59.8688 18 60.1883 18 60.5825V61.8313C18 63.2679 19.1688 64.4368 20.6055 64.4368H22.8892C24.3258 64.4368 25.4946 63.268 25.4946 61.8313V61.7343L35.9462 65.6922C35.9655 65.6995 35.9852 65.7059 36.0051 65.7115C36.4595 65.8398 36.9137 65.9042 37.3621 65.9042C37.6047 65.9042 37.8456 65.8853 38.0841 65.8476L53.4436 63.6336C53.4472 63.6331 53.4507 63.6325 53.4543 63.6319C54.7602 63.4234 55.9921 62.8713 57.0168 62.0356C57.0257 62.0284 57.0345 62.0209 57.043 62.0131L66.9659 53.0885C68.1215 52.0627 68.3372 50.3256 67.468 49.0481ZM33.9216 25.5099L33.9249 27.5207L30.4179 30.8244L30.4092 25.5147L33.9216 25.5099ZM42.8185 26.1031L55.371 37.8621L55.3928 53.4473L53.3722 54.7997L51.2324 54.6797L51.1759 54.1113C50.9768 52.1095 49.499 50.4993 47.545 50.115L47.5321 40.843C47.5312 40.1315 46.9519 39.5533 46.2404 39.5533C46.2398 39.5533 46.2394 39.5533 46.2387 39.5533L39.4365 39.5629C39.0915 39.5633 38.7673 39.6981 38.5237 39.9424C38.2801 40.1867 38.1462 40.5113 38.1467 40.8562L38.158 48.9403C36.8106 48.6323 35.5241 48.1236 34.3213 47.42C34.1712 47.3322 34.0196 47.2474 33.8668 47.165C33.8072 47.1329 33.7467 47.1027 33.6866 47.0714C33.5937 47.0228 33.5009 46.974 33.4069 46.9274C33.3321 46.8903 33.2564 46.8551 33.1811 46.8193C33.1011 46.7813 33.0212 46.7429 32.9406 46.7063C32.8586 46.6691 32.7759 46.6337 32.6933 46.5979C32.6178 46.5653 32.5423 46.5325 32.4663 46.5011C32.3813 46.4661 32.2959 46.4324 32.2104 46.3989C32.1345 46.3692 32.0585 46.3397 31.9822 46.3112C31.8976 46.2796 31.8125 46.249 31.7272 46.219C31.6473 46.1908 31.5672 46.1632 31.4867 46.1364C31.4051 46.1091 31.3232 46.0825 31.241 46.0566C31.1534 46.029 31.0654 46.0026 30.9773 45.9765C30.9017 45.9543 30.8261 45.932 30.75 45.9109C30.6507 45.8833 30.5509 45.8574 30.451 45.8318C30.4042 45.8198 30.3577 45.8062 30.3106 45.7946L30.2996 37.8964L42.8185 26.1031ZM46.1175 49.9364L40.1482 49.2492L39.5858 49.1844L39.5743 40.99L46.105 40.9808L46.1175 49.9364ZM66.0149 52.0244L56.1018 60.9402C55.2757 61.61 54.2848 62.0531 53.2345 62.2216L37.8816 64.4347C37.8784 64.4352 37.8753 64.4357 37.8721 64.4362L37.8614 64.4379C37.3963 64.5115 36.9119 64.4804 36.4216 64.3459L25.4947 60.208V46.7861H26.7159C27.7555 46.7861 28.788 46.9061 29.7935 47.1392C29.8309 47.1479 29.8682 47.1568 29.9055 47.1658C30.029 47.1956 30.1522 47.2262 30.2749 47.2594C30.2856 47.2624 30.2963 47.2655 30.307 47.2684C30.43 47.302 30.5524 47.3375 30.6745 47.3745C30.6964 47.3811 30.7184 47.3877 30.7401 47.3944C30.87 47.4345 30.9993 47.4764 31.1279 47.5204C31.1412 47.525 31.1544 47.5297 31.1677 47.5342C31.4355 47.6267 31.7008 47.7276 31.9627 47.8368C31.977 47.8427 31.9912 47.8487 32.0055 47.8548C32.136 47.9096 32.2658 47.9664 32.3947 48.0254C32.3981 48.0269 32.4017 48.0286 32.4051 48.0302C32.5297 48.0875 32.6534 48.1468 32.7764 48.2079C32.7908 48.215 32.8054 48.222 32.8198 48.2293C32.9399 48.2893 33.0591 48.3515 33.1775 48.4152C33.1999 48.4272 33.2222 48.4395 33.2445 48.4516C33.3641 48.5168 33.4829 48.5832 33.6006 48.652C35.2989 49.6455 37.1478 50.2889 39.0958 50.5646C39.102 50.5655 39.108 50.5663 39.1142 50.567L47.1104 51.4876C47.1546 51.4939 47.1985 51.5012 47.2422 51.5094C48.4193 51.7305 49.3484 52.6004 49.6593 53.7331C49.7054 53.9008 49.7378 54.0745 49.7556 54.2525L49.7873 54.5718L34.801 53.2589C34.4086 53.2246 34.0621 53.5149 34.0277 53.9075C33.9933 54.3002 34.2838 54.6464 34.6764 54.6807L50.5203 56.0689C50.5241 56.0692 50.5278 56.0691 50.5315 56.0694C50.5353 56.0697 50.5389 56.0703 50.5427 56.0706L53.5307 56.2382C53.544 56.239 53.5573 56.2393 53.5706 56.2393C53.5848 56.2393 53.5987 56.2371 53.6128 56.2362C53.6287 56.2352 53.6446 56.2346 53.6604 56.2327C53.6817 56.2299 53.7025 56.2254 53.7234 56.2208C53.7384 56.2174 53.7534 56.215 53.7681 56.2107C53.7909 56.2042 53.8129 56.1953 53.8351 56.1864C53.847 56.1816 53.8593 56.178 53.871 56.1725C53.9043 56.1571 53.9367 56.1393 53.9676 56.1186L56.5039 54.4213C56.504 54.4212 56.5041 54.4211 56.5042 54.421L63.9946 49.4081C64.7482 48.9015 65.777 49.1003 66.2878 49.851C66.7548 50.5372 66.6389 51.4703 66.0149 52.0244Z" fill="#28A922"/>
</svg>
