<svg width="86" height="86" viewBox="0 0 86 86" fill="none" xmlns="http://www.w3.org/2000/svg">
<rect width="86" height="86" rx="43" fill="#F6F6F6"/>
<path d="M41.4375 48.4688C33.6828 48.4688 27.375 42.1594 27.375 34.4062C27.375 33.975 27.725 33.625 28.1562 33.625H54.7188C55.15 33.625 55.5 33.975 55.5 34.4062C55.5 42.1594 49.1922 48.4688 41.4375 48.4688ZM28.9625 35.1875C29.3672 41.7172 34.8078 46.9062 41.4375 46.9062C48.0672 46.9062 53.5094 41.7172 53.9125 35.1875H28.9625Z" fill="#28A922"/>
<path d="M37.0047 44.325C36.8906 44.325 36.775 44.3 36.6641 44.2469C34.8203 43.3531 33.2687 41.9641 32.1766 40.2266C31.0859 38.4922 30.5062 36.4891 30.5 34.4391C30.4984 34.0078 30.8484 33.6578 31.2781 33.6563C31.7578 33.6469 32.0594 34.0016 32.0625 34.4359C32.0687 36.1938 32.5641 37.9109 33.5 39.3969C34.4359 40.8859 35.7656 42.0781 37.3453 42.8438C37.7344 43.0312 37.8969 43.4984 37.7078 43.8875C37.5719 44.1641 37.2953 44.325 37.0047 44.325ZM41.3 55.5C38.5797 55.5 35.9328 54.7172 33.65 53.2375C33.2875 53.0031 33.1844 52.5203 33.4187 52.1578C33.6547 51.7953 34.1406 51.6938 34.4984 51.9281C38.6422 54.6125 44.2516 54.5516 48.3297 51.775C48.6844 51.5344 49.1719 51.6234 49.4141 51.9812C49.6562 52.3375 49.5656 52.8234 49.2078 53.0672C46.8687 54.6578 44.1344 55.5 41.3 55.5ZM32.0625 27.375C30.7703 27.375 29.7188 26.3234 29.7188 25.0312V23.4688C29.7188 22.1766 30.7703 21.125 32.0625 21.125C33.3547 21.125 34.4062 22.1766 34.4062 23.4688V25.0312C34.4062 26.3234 33.3547 27.375 32.0625 27.375ZM32.0625 22.6875C31.6328 22.6875 31.2812 23.0375 31.2812 23.4688V25.0312C31.2812 25.4625 31.6328 25.8125 32.0625 25.8125C32.4922 25.8125 32.8438 25.4625 32.8438 25.0312V23.4688C32.8438 23.0375 32.4922 22.6875 32.0625 22.6875ZM38.3125 27.375C37.0203 27.375 35.9688 26.3234 35.9688 25.0312V23.4688C35.9688 22.1766 37.0203 21.125 38.3125 21.125C39.6047 21.125 40.6562 22.1766 40.6562 23.4688V25.0312C40.6562 26.3234 39.6047 27.375 38.3125 27.375ZM38.3125 22.6875C37.8828 22.6875 37.5312 23.0375 37.5312 23.4688V25.0312C37.5312 25.4625 37.8828 25.8125 38.3125 25.8125C38.7422 25.8125 39.0938 25.4625 39.0938 25.0312V23.4688C39.0938 23.0375 38.7422 22.6875 38.3125 22.6875ZM44.5625 27.375C43.2703 27.375 42.2188 26.3234 42.2188 25.0312V23.4688C42.2188 22.1766 43.2703 21.125 44.5625 21.125C45.8547 21.125 46.9062 22.1766 46.9062 23.4688V25.0312C46.9062 26.3234 45.8547 27.375 44.5625 27.375ZM44.5625 22.6875C44.1328 22.6875 43.7812 23.0375 43.7812 23.4688V25.0312C43.7812 25.4625 44.1328 25.8125 44.5625 25.8125C44.9922 25.8125 45.3438 25.4625 45.3438 25.0312V23.4688C45.3438 23.0375 44.9922 22.6875 44.5625 22.6875ZM50.8125 27.375C49.5203 27.375 48.4688 26.3234 48.4688 25.0312V23.4688C48.4688 22.1766 49.5203 21.125 50.8125 21.125C52.1047 21.125 53.1562 22.1766 53.1562 23.4688V25.0312C53.1562 26.3234 52.1047 27.375 50.8125 27.375ZM50.8125 22.6875C50.3828 22.6875 50.0312 23.0375 50.0312 23.4688V25.0312C50.0312 25.4625 50.3828 25.8125 50.8125 25.8125C51.2422 25.8125 51.5938 25.4625 51.5938 25.0312V23.4688C51.5938 23.0375 51.2422 22.6875 50.8125 22.6875ZM31.2812 64.875C29.5578 64.875 28.1562 63.4734 28.1562 61.75C28.1562 60.0266 29.5578 58.625 31.2812 58.625C33.0047 58.625 34.4062 60.0266 34.4062 61.75C34.4062 63.4734 33.0047 64.875 31.2812 64.875ZM31.2812 60.1875C30.4188 60.1875 29.7188 60.8891 29.7188 61.75C29.7188 62.6109 30.4188 63.3125 31.2812 63.3125C32.1437 63.3125 32.8438 62.6109 32.8438 61.75C32.8438 60.8891 32.1437 60.1875 31.2812 60.1875Z" fill="#28A922"/>
<path d="M51.3547 61.75H33.625C33.1937 61.75 32.8438 61.4 32.8438 60.9688C32.8438 60.5375 33.1937 60.1875 33.625 60.1875H51.3547C51.7859 60.1875 52.1359 60.5375 52.1359 60.9688C52.1359 61.4 51.7859 61.75 51.3547 61.75Z" fill="#28A922"/>
<path d="M52.375 64.875C52.0406 64.875 51.7312 64.6594 51.6281 64.3234L46.2078 46.7078C46.0797 46.2953 46.3109 45.8594 46.7234 45.7312C47.1437 45.6062 47.575 45.8359 47.7 46.2484L53.1203 63.8641C53.2484 64.2766 53.0172 64.7125 52.6047 64.8406C52.5281 64.8641 52.4516 64.875 52.375 64.875ZM31.9422 60.1875C31.8656 60.1875 31.7891 60.1766 31.7125 60.1531C31.3 60.025 31.0688 59.5891 31.1969 59.1766L35.175 46.2484C35.3 45.8359 35.7312 45.6031 36.1516 45.7312C36.5641 45.8594 36.7953 46.2953 36.6672 46.7078L32.6875 59.6359C32.5859 59.9719 32.2766 60.1875 31.9422 60.1875ZM57.8438 25.0312H52.375C51.9438 25.0312 51.5938 24.6812 51.5938 24.25C51.5938 23.8188 51.9438 23.4688 52.375 23.4688H57.8438C58.275 23.4688 58.625 23.8188 58.625 24.25C58.625 24.6812 58.275 25.0312 57.8438 25.0312ZM49.25 25.0312H46.125C45.6938 25.0312 45.3438 24.6812 45.3438 24.25C45.3438 23.8188 45.6938 23.4688 46.125 23.4688H49.25C49.6812 23.4688 50.0312 23.8188 50.0312 24.25C50.0312 24.6812 49.6812 25.0312 49.25 25.0312ZM43 25.0312H39.875C39.4438 25.0312 39.0938 24.6812 39.0938 24.25C39.0938 23.8188 39.4438 23.4688 39.875 23.4688H43C43.4312 23.4688 43.7812 23.8188 43.7812 24.25C43.7812 24.6812 43.4312 25.0312 43 25.0312ZM36.75 25.0312H33.625C33.1938 25.0312 32.8438 24.6812 32.8438 24.25C32.8438 23.8188 33.1938 23.4688 33.625 23.4688H36.75C37.1812 23.4688 37.5312 23.8188 37.5312 24.25C37.5312 24.6812 37.1812 25.0312 36.75 25.0312ZM30.3531 25.0312H23.4688C23.0375 25.0312 22.6875 24.6812 22.6875 24.25C22.6875 23.8188 23.0375 23.4688 23.4688 23.4688H30.3531C30.7844 23.4688 31.1344 23.8188 31.1344 24.25C31.1344 24.6812 30.7859 25.0312 30.3531 25.0312Z" fill="#28A922"/>
<path d="M28.1562 35.1875C27.725 35.1875 27.375 34.8375 27.375 34.4062V24.25C27.375 23.8188 27.725 23.4688 28.1562 23.4688C28.5875 23.4688 28.9375 23.8188 28.9375 24.25V34.4062C28.9375 34.8375 28.5875 35.1875 28.1562 35.1875ZM54.7188 35.1875C54.2875 35.1875 53.9375 34.8375 53.9375 34.4062V24.4203C53.9375 23.9891 54.2875 23.6391 54.7188 23.6391C55.15 23.6391 55.5 23.9891 55.5 24.4203V34.4062C55.5 34.8375 55.15 35.1875 54.7188 35.1875ZM60.9688 26.5938H59.4062C58.1141 26.5938 57.0625 25.5422 57.0625 24.25C57.0625 22.9578 58.1141 21.9062 59.4062 21.9062H60.9688C62.2609 21.9062 63.3125 22.9578 63.3125 24.25C63.3125 25.5422 62.2609 26.5938 60.9688 26.5938ZM59.4062 23.4688C58.9766 23.4688 58.625 23.8188 58.625 24.25C58.625 24.6813 58.9766 25.0312 59.4062 25.0312H60.9688C61.3984 25.0312 61.75 24.6813 61.75 24.25C61.75 23.8188 61.3984 23.4688 60.9688 23.4688H59.4062ZM32.8438 32.0625C32.4125 32.0625 32.0625 31.7125 32.0625 31.2812V29.7188C32.0625 29.2875 32.4125 28.9375 32.8438 28.9375C33.275 28.9375 33.625 29.2875 33.625 29.7188V31.2812C33.625 31.7125 33.275 32.0625 32.8438 32.0625ZM39.0938 32.0625C38.6625 32.0625 38.3125 31.7125 38.3125 31.2812V29.7188C38.3125 29.2875 38.6625 28.9375 39.0938 28.9375C39.525 28.9375 39.875 29.2875 39.875 29.7188V31.2812C39.875 31.7125 39.525 32.0625 39.0938 32.0625ZM45.3438 32.0625C44.9125 32.0625 44.5625 31.7125 44.5625 31.2812V29.7188C44.5625 29.2875 44.9125 28.9375 45.3438 28.9375C45.775 28.9375 46.125 29.2875 46.125 29.7188V31.2812C46.125 31.7125 45.775 32.0625 45.3438 32.0625ZM51.5938 32.0625C51.1625 32.0625 50.8125 31.7125 50.8125 31.2812V29.7188C50.8125 29.2875 51.1625 28.9375 51.5938 28.9375C52.025 28.9375 52.375 29.2875 52.375 29.7188V31.2812C52.375 31.7125 52.025 32.0625 51.5938 32.0625ZM35.9688 32.0625C35.5375 32.0625 35.1875 31.7125 35.1875 31.2812V28.1562C35.1875 27.725 35.5375 27.375 35.9688 27.375C36.4 27.375 36.75 27.725 36.75 28.1562V31.2812C36.75 31.7125 36.4 32.0625 35.9688 32.0625ZM42.2188 32.0625C41.7875 32.0625 41.4375 31.7125 41.4375 31.2812V28.1562C41.4375 27.725 41.7875 27.375 42.2188 27.375C42.65 27.375 43 27.725 43 28.1562V31.2812C43 31.7125 42.65 32.0625 42.2188 32.0625ZM48.4688 32.0625C48.0375 32.0625 47.6875 31.7125 47.6875 31.2812V28.1562C47.6875 27.725 48.0375 27.375 48.4688 27.375C48.9 27.375 49.25 27.725 49.25 28.1562V31.2812C49.25 31.7125 48.9 32.0625 48.4688 32.0625ZM54.7188 38.3125H54.3422C53.9109 38.3125 53.5609 37.9625 53.5609 37.5312C53.5609 37.1 53.9109 36.75 54.3422 36.75H54.7188C56.0109 36.75 57.0625 35.6984 57.0625 34.4062C57.0625 33.975 57.4125 33.625 57.8438 33.625H59.4062C59.8375 33.625 60.1875 33.975 60.1875 34.4062C60.1875 34.8375 59.8375 35.1875 59.4062 35.1875H58.5469C58.1844 36.9688 56.6047 38.3125 54.7188 38.3125ZM28.5328 38.3125H28.1562C26.2703 38.3125 24.6906 36.9688 24.3281 35.1875H23.4688C23.0375 35.1875 22.6875 34.8375 22.6875 34.4062C22.6875 33.975 23.0375 33.625 23.4688 33.625H25.0312C25.4625 33.625 25.8125 33.975 25.8125 34.4062C25.8125 35.6984 26.8641 36.75 28.1562 36.75H28.5328C28.9641 36.75 29.3141 37.1 29.3141 37.5312C29.3141 37.9625 28.9656 38.3125 28.5328 38.3125Z" fill="#28A922"/>
</svg>
