<svg width="86" height="86" viewBox="0 0 86 86" fill="none" xmlns="http://www.w3.org/2000/svg">
<rect width="86" height="86" rx="43" fill="#F6F6F6"/>
<path d="M21.6719 24.1719C22.2205 23.7161 22.9117 23.4673 23.625 23.4688C24.3446 23.4787 25.0375 23.743 25.5809 24.2149C26.1243 24.6867 26.4831 25.3358 26.5937 26.0469C26.6188 26.1787 26.6773 26.3018 26.7637 26.4044C26.8501 26.5069 26.9614 26.5856 27.087 26.6327C27.2126 26.6798 27.3481 26.6937 27.4807 26.6732C27.6132 26.6527 27.7383 26.5985 27.8437 26.5156C28.3685 26.0712 29.0312 25.8227 29.7187 25.8125C30.2118 25.8151 30.6969 25.9373 31.1324 26.1686C31.5678 26.3999 31.9406 26.7335 32.2187 27.1406C32.3077 27.2662 32.4317 27.3627 32.5753 27.418C32.7188 27.4733 32.8755 27.485 33.0257 27.4517C33.1759 27.4183 33.3129 27.3413 33.4195 27.2304C33.5261 27.1195 33.5976 26.9795 33.625 26.8281C33.7381 26.1674 34.0659 25.5625 34.5577 25.107C35.0494 24.6515 35.6776 24.3708 36.345 24.3085C37.0124 24.2463 37.6818 24.4058 38.2493 24.7624C38.8169 25.1191 39.251 25.6529 39.4844 26.2813C39.5286 26.4002 39.6012 26.5065 39.6957 26.5911C39.7903 26.6756 39.904 26.7359 40.0271 26.7667C40.1502 26.7975 40.2789 26.7978 40.4021 26.7677C40.5253 26.7375 40.6394 26.6778 40.7344 26.5938C41.2922 26.0922 42.0155 25.814 42.7656 25.8125C43.2719 25.8022 43.7727 25.9183 44.2228 26.1502C44.673 26.3821 45.0582 26.7225 45.3437 27.1406C45.4165 27.2377 45.5109 27.3164 45.6194 27.3707C45.7278 27.4249 45.8475 27.4531 45.9687 27.4531H46.125C46.2801 27.4243 46.4228 27.3491 46.5344 27.2375C46.6459 27.126 46.7211 26.9832 46.75 26.8281C46.8701 26.2204 47.1726 25.6638 47.6171 25.2323C48.0616 24.8009 48.6271 24.5152 49.2382 24.4134C49.8492 24.3116 50.4768 24.3984 51.0372 24.6623C51.5976 24.9262 52.0643 25.3547 52.375 25.8906C52.4347 25.9978 52.5189 26.0893 52.6206 26.1579C52.7223 26.2265 52.8387 26.2701 52.9604 26.2854C53.0821 26.3006 53.2057 26.2869 53.3212 26.2455C53.4366 26.2041 53.5407 26.136 53.625 26.0469C53.8906 25.7577 54.2109 25.5241 54.5673 25.3595C54.9238 25.1949 55.3094 25.1027 55.7018 25.0882C56.0941 25.0736 56.4855 25.1371 56.8531 25.2748C57.2208 25.4126 57.5575 25.6219 57.8438 25.8906C57.9387 25.9747 58.0528 26.0344 58.176 26.0645C58.2993 26.0947 58.428 26.0943 58.551 26.0636C58.6741 26.0328 58.7878 25.9725 58.8824 25.8879C58.977 25.8034 59.0495 25.697 59.0937 25.5781C59.2915 24.9666 59.6776 24.4333 60.1968 24.0544C60.716 23.6755 61.3417 23.4705 61.9844 23.4688C62.4122 23.4695 62.835 23.5603 63.2253 23.7353C63.6157 23.9103 63.9648 24.1655 64.25 24.4844C64.3117 24.5763 64.3922 24.654 64.4862 24.7124C64.5802 24.7708 64.6855 24.8086 64.7952 24.8233C64.9049 24.8379 65.0165 24.8291 65.1225 24.7974C65.2286 24.7656 65.3266 24.7117 65.4103 24.6393C65.4939 24.5668 65.5612 24.4774 65.6077 24.3769C65.6541 24.2765 65.6787 24.1673 65.6798 24.0566C65.6809 23.946 65.6585 23.8363 65.614 23.735C65.5695 23.6336 65.5041 23.5429 65.4219 23.4688C64.9455 22.9357 64.3517 22.5207 63.6873 22.2566C63.0229 21.9926 62.3063 21.8867 61.5939 21.9473C60.8816 22.0079 60.1931 22.2334 59.5829 22.6059C58.9727 22.9785 58.4575 23.4878 58.0781 24.0938C57.3196 23.6631 56.4545 23.4566 55.5832 23.4981C54.712 23.5396 53.8704 23.8274 53.1562 24.3281C52.6767 23.7394 52.0569 23.2806 51.3538 22.994C50.6507 22.7073 49.8869 22.6019 49.1324 22.6874C48.3779 22.773 47.6571 23.0468 47.036 23.4836C46.415 23.9205 45.9136 24.5064 45.5781 25.1875C44.8637 24.6306 44.0011 24.2966 43.0979 24.2271C42.1948 24.1577 41.2912 24.3558 40.5 24.7969C40.0613 24.1181 39.4519 23.5666 38.7328 23.1976C38.0137 22.8287 37.2102 22.6553 36.403 22.6949C35.5958 22.7345 34.8131 22.9856 34.1336 23.4231C33.454 23.8606 32.9014 24.4691 32.5312 25.1875C31.8636 24.6677 31.0658 24.3418 30.2252 24.2453C29.3846 24.1488 28.5337 24.2856 27.7656 24.6406C27.4743 23.9875 27.0349 23.411 26.4823 22.957C25.9297 22.5029 25.2791 22.1837 24.5818 22.0245C23.8845 21.8654 23.1598 21.8706 22.4649 22.0399C21.77 22.2093 21.124 22.5379 20.5781 23C20.4227 23.1451 20.3313 23.3459 20.324 23.5583C20.3167 23.7708 20.394 23.9774 20.5391 24.1328C20.6841 24.2882 20.8849 24.3796 21.0974 24.387C21.3098 24.3943 21.5165 24.3169 21.6719 24.1719ZM64.875 29.1719H21.125C20.9178 29.1719 20.7191 29.2542 20.5726 29.4007C20.4261 29.5472 20.3437 29.7459 20.3437 29.9531C20.3437 30.1603 20.4261 30.3591 20.5726 30.5056C20.7191 30.6521 20.9178 30.7344 21.125 30.7344H64.875C65.0822 30.7344 65.2809 30.6521 65.4274 30.5056C65.5739 30.3591 65.6562 30.1603 65.6562 29.9531C65.6562 29.7459 65.5739 29.5472 65.4274 29.4007C65.2809 29.2542 65.0822 29.1719 64.875 29.1719ZM49.25 57.2188H48.7812C48.7812 56.4375 48.2344 55.6563 46.75 55.6563C45.7406 55.8038 44.7633 56.1208 43.8594 56.5938C43.1289 56.9211 42.3707 57.1826 41.5938 57.375C41.2031 57.375 41.125 57.2969 41.125 57.2969C41.125 57.0897 41.0427 56.891 40.8962 56.7445C40.7497 56.5979 40.5509 56.5156 40.3438 56.5156C40.1365 56.5156 39.9378 56.5979 39.7913 56.7445C39.6448 56.891 39.5625 57.0897 39.5625 57.2969C39.5625 58.0781 40.1094 58.9375 41.5938 59.0156C42.6169 58.792 43.5944 58.3957 44.4844 57.8438C45.2148 57.5164 45.973 57.2549 46.75 57.0625H47.2188C47.2188 57.8438 47.7656 58.625 49.25 58.625C50.2221 58.5105 51.1707 58.247 52.0625 57.8438C52.7929 57.5164 53.5512 57.2549 54.3281 57.0625C54.5625 57.0625 54.875 57.375 54.9531 57.5313C55.0671 57.7074 55.2463 57.831 55.4515 57.875C55.6566 57.9189 55.8708 57.8796 56.0469 57.7656C56.223 57.6517 56.3466 57.4724 56.3906 57.2673C56.4345 57.0622 56.3952 56.848 56.2812 56.6719C56.0718 56.3358 55.7855 56.0543 55.4459 55.8506C55.1063 55.6469 54.7232 55.5267 54.3281 55.5C53.3194 55.6505 52.3425 55.9673 51.4375 56.4375C50.7324 56.7609 50.0005 57.0224 49.25 57.2188ZM43.7031 49.3281C43.9375 49.3281 44.25 49.6406 44.3281 49.7969C44.4421 49.973 44.6213 50.0966 44.8265 50.1406C45.0316 50.1846 45.2458 50.1452 45.4219 50.0313C45.598 49.9173 45.7216 49.738 45.7656 49.5329C45.8095 49.3278 45.7702 49.1136 45.6562 48.9375C45.4545 48.6115 45.1805 48.3362 44.8553 48.133C44.5302 47.9298 44.1627 47.8041 43.7812 47.7656C42.7725 47.9161 41.7957 48.2329 40.8906 48.7031C40.1602 49.0305 39.402 49.292 38.625 49.4844H38.1562C38.1562 48.7031 37.6094 47.9219 36.125 47.9219C35.1169 48.0751 34.1405 48.3918 33.2344 48.8594C32.5041 49.1872 31.7458 49.4486 30.9687 49.6406C30.5781 49.6406 30.5 49.5625 30.5 49.5625C30.5 49.3553 30.4177 49.1566 30.2712 49.0101C30.1247 48.8636 29.9259 48.7813 29.7187 48.7813C29.5115 48.7813 29.3128 48.8636 29.1663 49.0101C29.0198 49.1566 28.9375 49.3553 28.9375 49.5625C28.9375 50.3438 29.4844 51.2031 30.9687 51.2813C31.9792 51.1382 32.9573 50.821 33.8594 50.3438C34.5897 50.016 35.3479 49.7545 36.125 49.5625H36.5937C36.5937 50.3438 37.1406 51.125 38.625 51.125H38.7031C39.6616 50.93 40.5841 50.5874 41.4375 50.1094C42.1679 49.782 42.9262 49.5206 43.7031 49.3281ZM52.6875 40.0313C51.6791 40.1831 50.7025 40.4998 49.7969 40.9688C49.0664 41.2961 48.3082 41.5576 47.5312 41.75H47.0625C47.0625 40.9688 46.5156 40.1875 45.0312 40.1094C44.0208 40.2525 43.0427 40.5697 42.1406 41.0469C41.4102 41.3743 40.652 41.6357 39.875 41.8281C39.4844 41.8281 39.4062 41.75 39.4062 41.75C39.4062 41.5428 39.3239 41.3441 39.1774 41.1976C39.0309 41.0511 38.8322 40.9688 38.625 40.9688C38.4178 40.9688 38.2191 41.0511 38.0726 41.1976C37.9261 41.3441 37.8437 41.5428 37.8437 41.75C37.8437 42.5313 38.3906 43.3906 39.875 43.4688C40.8841 43.3197 41.8611 43.0029 42.7656 42.5313C43.4961 42.2039 44.2543 41.9424 45.0312 41.75H45.5C45.5 42.5313 46.0469 43.3125 47.5312 43.3906H47.6094C48.5903 43.228 49.5395 42.9116 50.4219 42.4531C51.1522 42.1254 51.9104 41.8639 52.6875 41.6719C52.9219 41.6719 53.2344 41.9844 53.3125 42.1406C53.4265 42.3168 53.6057 42.4404 53.8108 42.4843C54.0159 42.5283 54.2301 42.489 54.4062 42.375C54.5824 42.2611 54.706 42.0818 54.75 41.8767C54.7939 41.6716 54.7546 41.4574 54.6406 41.2813C54.4402 40.9307 54.1579 40.6338 53.8178 40.4161C53.4776 40.1984 53.0898 40.0664 52.6875 40.0313Z" fill="#28A922"/>
<path d="M57.0625 46.5938C58.1684 45.6692 59.1646 44.6206 60.0312 43.4688C60.7427 42.3243 61.1327 41.0094 61.1602 39.6621C61.1877 38.3148 60.8517 36.985 60.1875 35.8125C58.9375 33.7813 55.9688 31.4375 48.9375 32.2969C36.5156 33.7813 23.1562 42.375 23.1562 53.5469C23.1562 59.7188 33.7812 64.4844 40.8906 64.875H41.8281C47.5312 64.875 56.125 62.1406 59.1719 59.3281C59.5544 59.0262 59.8701 58.6481 60.0987 58.2177C60.3273 57.7874 60.464 57.3141 60.5 56.8281C60.5 54.4063 58.4688 52.375 56.8281 50.7344C55.1875 49.0938 55.2656 49.1719 55.1875 48.7813C55.1094 48.3906 56.125 47.375 57.0625 46.5938ZM53.5469 48.8594C53.5469 49.7969 54.4063 50.6563 55.6562 51.9063C56.9062 53.1563 58.8594 55.1094 58.8594 56.9063C58.7758 57.4317 58.4967 57.906 58.0781 58.2344C55.1094 60.9688 46.125 63.625 40.8906 63.3125C33.625 62.8438 24.6406 58.3125 24.6406 53.5469C24.6406 43.2344 37.2969 35.3438 49.0938 33.8594C54.0156 33.2344 57.375 34.1719 58.8594 36.5938C59.3611 37.5057 59.6177 38.5321 59.604 39.5728C59.5903 40.6135 59.3068 41.6329 58.7812 42.5313C57.9771 43.5674 57.06 44.5107 56.0469 45.3438C54.7188 46.5938 53.5469 47.6094 53.5469 48.8594Z" fill="#28A922"/>
</svg>
