<svg width="86" height="86" viewBox="0 0 86 86" fill="none" xmlns="http://www.w3.org/2000/svg">
<rect width="86" height="86" rx="43" fill="#F6F6F6"/>
<g clip-path="url(#clip0_12_10)">
<path d="M58.6251 46.125C58.6239 45.0894 58.2119 44.0965 57.4796 43.3642C56.7473 42.6319 55.7544 42.2199 54.7188 42.2188H52.0288C51.3767 40.6304 50.6416 39.0775 49.8265 37.5663C49.6223 37.2057 49.3259 36.9058 48.9677 36.6973C48.6095 36.4888 48.2023 36.3793 47.7879 36.38H28.8373C28.4229 36.3793 28.0157 36.4888 27.6575 36.6973C27.2993 36.9057 27.0029 37.2057 26.7988 37.5663C25.9837 39.0775 25.2485 40.6304 24.5965 42.2188H21.9065C20.8708 42.2199 19.8779 42.6319 19.1456 43.3642C18.4133 44.0965 18.0014 45.0894 18.0002 46.125C18.0002 46.3322 18.0825 46.5309 18.229 46.6774C18.3755 46.8239 18.5743 46.9062 18.7815 46.9063H21.9322C20.273 48.4149 17.7948 51.5641 18.0136 56.8039C18.2306 62.0064 18.9974 62.9764 19.7935 63.2496C19.8457 63.2668 19.8992 63.2803 19.9533 63.29V65.6563C19.954 66.2777 20.2012 66.8734 20.6405 67.3128C21.0799 67.7522 21.6757 67.9993 22.2971 68H26.2033C26.8247 67.9993 27.4204 67.7522 27.8598 67.3128C28.2992 66.8734 28.5464 66.2777 28.5471 65.6563V63.1466H28.9007C29.1057 63.1466 29.3025 63.0661 29.4486 62.9223L30.4035 61.9823H46.2218L47.1766 62.9223C47.3227 63.0661 47.5196 63.1466 47.7246 63.1466H48.0782V65.6563C48.0789 66.2777 48.326 66.8734 48.7654 67.3128C49.2048 67.7522 49.8006 67.9993 50.422 68H54.3282C54.9496 67.9993 55.5453 67.7522 55.9847 67.3128C56.4241 66.8734 56.6713 66.2777 56.6719 65.6563V63.2851C56.8788 63.2457 57.0724 63.1546 57.2346 63.0203C57.7736 62.5747 58.4172 61.465 58.6117 56.8039C58.8305 51.5641 56.3523 48.4149 54.6931 46.9063H57.8438C58.051 46.9062 58.2497 46.8239 58.3962 46.6774C58.5427 46.5309 58.625 46.3322 58.6251 46.125ZM26.1128 42.6471C26.7218 41.1749 27.4053 39.7346 28.1608 38.332C28.2289 38.2129 28.3275 38.1141 28.4464 38.0456C28.5652 37.9772 28.7002 37.9416 28.8373 37.9425H47.7879C47.9251 37.9416 48.06 37.9772 48.1789 38.0456C48.2978 38.1141 48.3963 38.2129 48.4644 38.332L48.4646 38.3323C49.7155 40.7287 50.8153 43.2008 51.7577 45.7344H24.9284L26.1209 43.3494C26.1747 43.2399 26.2021 43.1193 26.2006 42.9973C26.1992 42.8753 26.1692 42.7553 26.1128 42.6471ZM19.6966 45.3438C19.8587 44.8871 20.1581 44.4918 20.5537 44.212C20.9494 43.9323 21.4219 43.7818 21.9065 43.7813H23.9542C23.7266 44.3496 23.5212 44.8781 23.3445 45.3438H19.6966ZM19.8417 53.5469H25.7221C25.5446 54.3228 25.1092 55.0156 24.4871 55.5122C23.8651 56.0088 23.093 56.2799 22.2971 56.2813H19.5656C19.5542 55.3623 19.6469 54.445 19.8417 53.5469ZM26.9846 65.6563C26.9843 65.8634 26.9019 66.062 26.7555 66.2084C26.609 66.3549 26.4104 66.4373 26.2033 66.4375H22.2971C22.0899 66.4373 21.8914 66.3549 21.7449 66.2084C21.5984 66.062 21.5161 65.8634 21.5158 65.6563V63.1466H26.9846V65.6563ZM55.1094 65.6563C55.1092 65.8634 55.0268 66.062 54.8803 66.2084C54.7339 66.3549 54.5353 66.4373 54.3282 66.4375H50.422C50.2148 66.4373 50.0163 66.3549 49.8698 66.2084C49.7233 66.062 49.6409 65.8634 49.6407 65.6563V63.1466H54.9799C55.022 63.1466 55.0668 63.1537 55.1094 63.1553V65.6563ZM56.3065 61.7222L56.2443 61.7126C55.8269 61.6363 55.4041 61.5933 54.9799 61.5841H48.0446L47.0899 60.6441C46.9437 60.5003 46.7469 60.4198 46.5419 60.4198H30.0834C29.8784 60.4198 29.6816 60.5003 29.5354 60.6441L28.5806 61.5841H20.5128C20.4291 61.5841 20.3461 61.5975 20.2667 61.6237C20.0957 61.2666 19.7971 60.3086 19.6337 57.8438H22.2971C23.5072 57.8416 24.6769 57.4076 25.5956 56.62C26.5144 55.8323 27.1218 54.7425 27.3087 53.5469H49.3166C49.5034 54.7425 50.1109 55.8323 51.0296 56.62C51.9483 57.4076 53.118 57.8416 54.3282 57.8438H56.991C56.8093 60.5813 56.461 61.4616 56.3065 61.7222H56.3065ZM57.0597 56.2813H54.3282C53.5322 56.2799 52.7602 56.0088 52.1381 55.5122C51.516 55.0156 51.0807 54.3228 50.9031 53.5469H56.7836C56.9784 54.445 57.071 55.3623 57.0597 56.2813ZM56.3173 51.9844H20.3079C21.0214 50.0909 22.2901 48.4571 23.9479 47.2969H52.6771C54.3349 48.4571 55.6037 50.0909 56.3173 51.9844ZM53.3072 45.3438L52.7213 43.7813H54.7188C55.2034 43.7818 55.6759 43.9323 56.0715 44.212C56.4672 44.4918 56.7666 44.8871 56.9287 45.3438H53.3072Z" fill="#42B33D"/>
<path d="M50.0313 59.7969C50.0313 60.0041 50.1136 60.2028 50.2601 60.3493C50.4067 60.4958 50.6054 60.5781 50.8126 60.5781H54.7188C54.926 60.5781 55.1247 60.4958 55.2712 60.3493C55.4177 60.2028 55.5 60.0041 55.5 59.7969C55.5 59.5897 55.4177 59.391 55.2712 59.2444C55.1247 59.0979 54.926 59.0156 54.7188 59.0156H50.8126C50.6054 59.0156 50.4067 59.0979 50.2601 59.2445C50.1136 59.391 50.0313 59.5897 50.0313 59.7969ZM25.8127 59.0156H21.9064C21.6992 59.0156 21.5005 59.0979 21.354 59.2444C21.2075 59.391 21.1252 59.5897 21.1252 59.7969C21.1252 60.0041 21.2075 60.2028 21.354 60.3493C21.5005 60.4958 21.6992 60.5781 21.9064 60.5781H25.8127C26.0199 60.5781 26.2186 60.4958 26.3651 60.3493C26.5116 60.2028 26.5939 60.0041 26.5939 59.7969C26.5939 59.5897 26.5116 59.391 26.3651 59.2444C26.2186 59.0979 26.0199 59.0156 25.8127 59.0156ZM42.6095 56.2812H34.0158C33.8086 56.2812 33.6098 56.3636 33.4633 56.5101C33.3168 56.6566 33.2345 56.8553 33.2345 57.0625C33.2345 57.2697 33.3168 57.4684 33.4633 57.6149C33.6098 57.7614 33.8086 57.8438 34.0158 57.8438H42.6095C42.8167 57.8438 43.0154 57.7614 43.1619 57.6149C43.3084 57.4684 43.3907 57.2697 43.3907 57.0625C43.3907 56.8553 43.3084 56.6566 43.1619 56.5101C43.0154 56.3636 42.8167 56.2812 42.6095 56.2812ZM49.836 18H36.1642C35.3357 18.0009 34.5414 18.3305 33.9555 18.9163C33.3697 19.5022 33.0401 20.2965 33.0392 21.125V29.7188C33.0401 30.5473 33.3697 31.3416 33.9555 31.9274C34.5414 32.5133 35.3357 32.8428 36.1642 32.8438H49.836C50.6645 32.8428 51.4588 32.5133 52.0447 31.9274C52.6305 31.3416 52.9601 30.5473 52.961 29.7188V21.125C52.9601 20.2965 52.6305 19.5022 52.0447 18.9163C51.4588 18.3305 50.6645 18.0009 49.836 18V18ZM51.3985 29.7188C51.3985 30.1332 51.2339 30.5306 50.9409 30.8236C50.6478 31.1166 50.2504 31.2812 49.836 31.2812H36.1642C35.7498 31.2812 35.3524 31.1166 35.0593 30.8236C34.7663 30.5306 34.6017 30.1331 34.6017 29.7188V21.125C34.6017 20.7106 34.7663 20.3132 35.0593 20.0202C35.3524 19.7271 35.7498 19.5625 36.1642 19.5625H49.836C50.2504 19.5625 50.6478 19.7271 50.9409 20.0201C51.2339 20.3132 51.3985 20.7106 51.3985 21.125V29.7188Z" fill="#42B33D"/>
<path d="M43.0001 21.6541C42.314 21.6549 41.6562 21.9278 41.171 22.4129C40.6859 22.8981 40.413 23.5559 40.4122 24.242C40.4122 24.2639 40.4149 24.2852 40.4155 24.307C40.415 24.3181 40.4122 24.3284 40.4122 24.3396V28.4084C40.4116 28.5113 40.4314 28.6134 40.4704 28.7087C40.5095 28.8039 40.5669 28.8906 40.6395 28.9636C40.7121 29.0366 40.7984 29.0945 40.8935 29.134C40.9886 29.1736 41.0905 29.1939 41.1935 29.1939C41.2964 29.1939 41.3983 29.1736 41.4934 29.134C41.5885 29.0945 41.6748 29.0366 41.7474 28.9636C41.82 28.8906 41.8774 28.8039 41.9165 28.7087C41.9555 28.6134 41.9753 28.5113 41.9747 28.4084V26.617C42.3274 26.7693 42.7097 26.8412 43.0937 26.8273C43.4777 26.8135 43.8538 26.7143 44.1947 26.537C44.5355 26.3596 44.8326 26.1086 45.0644 25.8021C45.2961 25.4956 45.4567 25.1414 45.5345 24.7651C45.6122 24.3888 45.6052 23.9999 45.5139 23.6267C45.4226 23.2534 45.2493 22.9052 45.0066 22.6073C44.7639 22.3094 44.4579 22.0693 44.1108 21.9044C43.7638 21.7395 43.3843 21.654 43.0001 21.6541ZM43.0001 25.2674C42.7973 25.2674 42.599 25.2072 42.4304 25.0946C42.2618 24.9819 42.1304 24.8217 42.0527 24.6344C41.9751 24.447 41.9548 24.2408 41.9944 24.0419C42.034 23.843 42.1316 23.6603 42.275 23.5169C42.4184 23.3735 42.6011 23.2759 42.8 23.2363C42.9989 23.1967 43.2051 23.217 43.3925 23.2946C43.5798 23.3722 43.74 23.5037 43.8527 23.6723C43.9653 23.8409 44.0255 24.0392 44.0255 24.242C44.0251 24.5138 43.917 24.7744 43.7248 24.9667C43.5326 25.1589 43.2719 25.267 43.0001 25.2674ZM66.5243 55.5H66.4375V25.4219C66.4368 24.8005 66.1897 24.2047 65.7503 23.7653C65.3109 23.3259 64.7151 23.0788 64.0938 23.0781H54.5235V24.6406H64.0938C64.3009 24.6408 64.4995 24.7232 64.6459 24.8697C64.7924 25.0162 64.8748 25.2147 64.875 25.4219V55.5H63.3125V26.9844C63.3125 26.7772 63.2302 26.5785 63.0837 26.4319C62.9372 26.2854 62.7385 26.2031 62.5313 26.2031H54.5235V27.7656H61.75V55.5H61.6632C61.2606 55.5122 60.8792 55.6836 60.6026 55.9764C60.326 56.2693 60.1768 56.6598 60.1875 57.0625V67.2187C60.1875 67.4259 60.2698 67.6246 60.4163 67.7712C60.5628 67.9177 60.7616 68 60.9688 68C61.176 68 61.3747 67.9177 61.5212 67.7712C61.6677 67.6246 61.75 67.4259 61.75 67.2187L61.7573 57.0625H66.4375V67.2187C66.4375 67.4259 66.5198 67.6246 66.6663 67.7712C66.8128 67.9177 67.0115 68 67.2187 68C67.4259 68 67.6246 67.9177 67.7712 67.7712C67.9177 67.6246 68 67.4259 68 67.2187V57.0625C68.0107 56.6598 67.8615 56.2693 67.5849 55.9764C67.3083 55.6836 66.9269 55.5122 66.5243 55.5Z" fill="#42B33D"/>
</g>
<defs>
<clipPath id="clip0_12_10">
<rect width="50" height="50" fill="white" transform="translate(18 18)"/>
</clipPath>
</defs>
</svg>
