<svg width="86" height="86" viewBox="0 0 86 86" fill="none" xmlns="http://www.w3.org/2000/svg">
<rect width="86" height="86" rx="43" fill="#F6F6F6"/>
<path d="M32.2734 29.5563C31.9016 29.5563 31.5719 29.2906 31.5047 28.9109L31.2563 27.5109C31.1813 27.0859 31.4641 26.6813 31.8891 26.6047C32.3219 26.5281 32.7203 26.8141 32.7953 27.2375L33.0438 28.6375C33.1188 29.0625 32.8359 29.4672 32.4109 29.5438C32.3641 29.5531 32.3188 29.5563 32.2734 29.5563ZM38.6781 65.6484C38.3063 65.6484 37.9766 65.3828 37.9094 65.0031L33.1672 38.2797C33.0922 37.8547 33.375 37.45 33.8 37.3734C34.2359 37.3016 34.6297 37.5813 34.7063 38.0063L39.4484 64.7297C39.5234 65.1547 39.2406 65.5594 38.8156 65.6359C38.7688 65.6437 38.7234 65.6484 38.6781 65.6484Z" fill="#28A922"/>
<path d="M63.7031 65.6562H21.5156C21.0844 65.6562 20.7344 65.3062 20.7344 64.875C20.7344 64.4438 21.0844 64.0938 21.5156 64.0938H63.7031C64.1344 64.0938 64.4844 64.4438 64.4844 64.875C64.4844 65.3062 64.1344 65.6562 63.7031 65.6562ZM57.4531 57.8438H29.3281C29.0672 57.8438 28.8234 57.7141 28.6781 57.4953L22.4281 48.1203C22.1891 47.7609 22.2859 47.2766 22.6453 47.0375C23.0047 46.7969 23.4891 46.8953 23.7281 47.2547L29.7469 56.2813H57.4531C57.8844 56.2813 58.2344 56.6313 58.2344 57.0625C58.2344 57.4938 57.8844 57.8438 57.4531 57.8438Z" fill="#28A922"/>
<path d="M26.2031 65.6562C26.1063 65.6562 26.0078 65.6391 25.9125 65.6C25.5125 65.4391 25.3172 64.9844 25.4766 64.5844L28.6016 56.7719C28.7625 56.3703 29.2188 56.175 29.6172 56.3359C30.0172 56.4969 30.2125 56.9516 30.0531 57.3516L26.9281 65.1641C26.8063 65.4703 26.5125 65.6562 26.2031 65.6562ZM60.5781 65.6562C60.2688 65.6562 59.975 65.4703 59.8531 65.1656L56.7281 57.3531C56.5672 56.9531 56.7625 56.4984 57.1641 56.3375C57.561 56.1766 58.0188 56.3719 58.1797 56.7734L61.3047 64.5859C61.4656 64.9859 61.2703 65.4406 60.8688 65.6016C60.7735 65.6391 60.675 65.6562 60.5781 65.6562ZM21.6281 41.1094C21.2563 41.1094 20.9266 40.8437 20.8594 40.4641C20.3766 37.75 21.3172 34.9672 23.5047 32.6266C25.6344 30.3484 28.7094 28.7547 32.1625 28.1422C39.3719 26.8594 46.0344 30.3078 47.0141 35.8219C47.05 36.025 47.0047 36.2359 46.8844 36.4062C46.7656 36.5766 46.5844 36.6922 46.3813 36.7281L21.7656 41.0969C21.7188 41.1047 21.6734 41.1094 21.6281 41.1094ZM35.1906 29.4359C34.2922 29.4359 33.3688 29.5156 32.4344 29.6812C29.3125 30.2359 26.5469 31.6609 24.6453 33.6937C23.0172 35.4359 22.2031 37.4406 22.3078 39.4141L45.2906 35.3359C44.1969 31.7781 40.0672 29.4359 35.1906 29.4359Z" fill="#28A922"/>
<path d="M26.2437 40.2891C25.8719 40.2891 25.5422 40.0235 25.475 39.6438C25.0047 36.9985 25.4266 34.3531 26.6609 32.1922C27.9219 29.9875 29.875 28.5485 32.1609 28.1438C36.8312 27.3188 41.4187 31.1297 42.3969 36.6422C42.4328 36.8453 42.3875 37.0563 42.2672 37.2266C42.1484 37.3969 41.9672 37.5125 41.7641 37.5485L26.3797 40.2781C26.3344 40.286 26.2891 40.2891 26.2437 40.2891ZM33.45 29.5922C33.1141 29.5922 32.775 29.6219 32.4359 29.6813C30.6125 30.0047 29.0437 31.1719 28.0172 32.9688C27.0828 34.6031 26.6969 36.5766 26.9047 38.5969L40.6953 36.15C39.7125 32.3 36.6906 29.5922 33.45 29.5922Z" fill="#28A922"/>
<path d="M30.8578 39.4703C30.4859 39.4703 30.1562 39.2047 30.0891 38.825C29.6359 36.2797 29.5437 33.8156 29.8281 31.8875C30.2453 29.0594 31.3266 28.2906 32.1609 28.1422C34.6625 27.6859 36.9 32.4906 37.7812 37.4594C37.8172 37.6625 37.7719 37.8734 37.6516 38.0438C37.5328 38.2141 37.3516 38.3297 37.1484 38.3656L30.9953 39.4578C30.95 39.4672 30.9031 39.4703 30.8578 39.4703ZM32.4937 29.6766C32.4734 29.6766 32.4531 29.6781 32.4344 29.6812C32.1859 29.725 31.6437 30.2922 31.375 32.1156C31.1437 33.6906 31.1891 35.6781 31.5031 37.7812L36.0969 36.9672C35.1047 32.1312 33.2766 29.6766 32.4937 29.6766ZM56.6719 32.8438C54.5187 32.8438 52.7656 31.0906 52.7656 28.9375C52.7656 26.7844 54.5187 25.0312 56.6719 25.0312C58.825 25.0312 60.5781 26.7844 60.5781 28.9375C60.5781 31.0906 58.825 32.8438 56.6719 32.8438ZM56.6719 26.5938C55.3797 26.5938 54.3281 27.6453 54.3281 28.9375C54.3281 30.2297 55.3797 31.2812 56.6719 31.2812C57.9641 31.2812 59.0156 30.2297 59.0156 28.9375C59.0156 27.6453 57.9641 26.5938 56.6719 26.5938ZM56.6719 23.4688C56.2406 23.4688 55.8906 23.1188 55.8906 22.6875V21.125C55.8906 20.6938 56.2406 20.3438 56.6719 20.3438C57.1031 20.3438 57.4531 20.6938 57.4531 21.125V22.6875C57.4531 23.1188 57.1031 23.4688 56.6719 23.4688ZM56.6719 37.5312C56.2406 37.5312 55.8906 37.1812 55.8906 36.75V35.1875C55.8906 34.7563 56.2406 34.4062 56.6719 34.4062C57.1031 34.4062 57.4531 34.7563 57.4531 35.1875V36.75C57.4531 37.1812 57.1031 37.5312 56.6719 37.5312ZM64.4844 29.7188H62.9219C62.4906 29.7188 62.1406 29.3687 62.1406 28.9375C62.1406 28.5063 62.4906 28.1562 62.9219 28.1562H64.4844C64.9156 28.1562 65.2656 28.5063 65.2656 28.9375C65.2656 29.3687 64.9156 29.7188 64.4844 29.7188ZM50.4219 29.7188H48.8594C48.4281 29.7188 48.0781 29.3687 48.0781 28.9375C48.0781 28.5063 48.4281 28.1562 48.8594 28.1562H50.4219C50.8531 28.1562 51.2031 28.5063 51.2031 28.9375C51.2031 29.3687 50.8531 29.7188 50.4219 29.7188ZM61.0922 25.2984C60.8922 25.2984 60.6922 25.2219 60.5391 25.0703C60.2344 24.7656 60.2344 24.2703 60.5391 23.9656L61.6437 22.8609C61.9484 22.5563 62.4437 22.5563 62.7484 22.8609C63.0531 23.1656 63.0531 23.6609 62.7484 23.9656L61.6437 25.0703C61.4906 25.2234 61.2922 25.2984 61.0922 25.2984ZM51.1469 35.2438C50.9469 35.2438 50.7469 35.1672 50.5937 35.0156C50.2891 34.7109 50.2891 34.2156 50.5937 33.9109L51.6984 32.8062C52.0031 32.5016 52.4984 32.5016 52.8031 32.8062C53.1078 33.1109 53.1078 33.6062 52.8031 33.9109L51.6984 35.0156C51.5469 35.1672 51.3469 35.2438 51.1469 35.2438ZM62.1969 35.2438C61.9969 35.2438 61.7969 35.1672 61.6437 35.0156L60.5391 33.9109C60.2344 33.6062 60.2344 33.1109 60.5391 32.8062C60.8437 32.5016 61.3391 32.5016 61.6437 32.8062L62.7484 33.9109C63.0531 34.2156 63.0531 34.7109 62.7484 35.0156C62.5969 35.1672 62.3969 35.2438 62.1969 35.2438ZM52.2516 25.2984C52.0516 25.2984 51.8516 25.2219 51.6984 25.0703L50.5937 23.9656C50.2891 23.6609 50.2891 23.1656 50.5937 22.8609C50.8984 22.5563 51.3937 22.5563 51.6984 22.8609L52.8031 23.9656C53.1078 24.2703 53.1078 24.7656 52.8031 25.0703C52.6516 25.2234 52.4516 25.2984 52.2516 25.2984Z" fill="#28A922"/>
</svg>
