<svg width="86" height="86" viewBox="0 0 86 86" fill="none" xmlns="http://www.w3.org/2000/svg">
<rect width="86" height="86" rx="43" fill="#F6F6F6"/>
<path d="M33.3367 54.9797C33.0445 54.8672 32.7117 54.9476 32.5016 55.1828L29.3984 58.6547C29.1211 58.9664 29.1469 59.4453 29.4594 59.7242C29.7695 60.0015 30.2492 59.9758 30.5289 59.664L32.3086 57.6719V59.0914C32.3086 60.5539 31.8883 61.8734 31.1273 62.8023C30.3352 63.7562 29.2164 64.2609 27.8914 64.2609C25.0445 64.2609 22.7297 61.9414 22.7297 59.0914V55.4328C24.1359 55.0898 25.1859 53.8281 25.1859 52.3187C25.1859 50.8094 24.1359 49.5476 22.7297 49.2047V30.5844C22.7297 30.1656 22.3906 29.8265 21.9719 29.8265C21.5531 29.8265 21.2141 30.1656 21.2141 30.5844V49.2039C19.8078 49.5461 18.7563 50.8086 18.7563 52.3187C18.7563 53.8289 19.8078 55.0914 21.2141 55.4336V59.0914C21.2141 62.7773 24.2102 65.7765 27.8914 65.7765C29.6813 65.7765 31.2023 65.0828 32.2961 63.7664C33.2813 62.5633 33.8234 60.9031 33.8234 59.0922V55.6875C33.8242 55.3734 33.6305 55.0922 33.3367 54.9797ZM20.2727 52.3195C20.2727 51.3859 21.0305 50.6258 21.9625 50.6211C21.9656 50.6211 21.9688 50.6234 21.9727 50.6234C21.9766 50.6234 21.9789 50.6211 21.982 50.6211C22.9141 50.6273 23.6711 51.3859 23.6711 52.3195C23.6711 53.2562 22.9086 54.0187 21.9711 54.0187C21.0352 54.0187 20.2727 53.2562 20.2727 52.3195Z" fill="#28A922"/>
<path d="M65.0289 50.0664L67.1305 44.8477C67.3719 44.2399 67.207 43.5711 66.7109 43.1446C66.2141 42.7188 65.5297 42.6578 64.9664 42.9875L58.4789 46.786C56.3188 44.9321 53.9641 43.5735 51.4609 42.7375L52.8774 37.8274C52.9672 37.5149 52.8492 37.1805 52.5828 36.9953C52.3156 36.8102 51.9617 36.8164 51.7 37.0078L45.2453 41.7711C44.8078 41.7758 44.4109 41.7938 44.0477 41.8235C42.3922 41.9282 40.8133 42.2094 39.3641 42.6602C32.6734 44.686 30.0047 49.5016 29.8945 49.7063C29.7727 49.9313 29.7734 50.2032 29.8961 50.4282C30.0734 50.7539 34.3453 58.3711 45.4945 58.3703C45.5961 58.3703 45.6984 58.3703 45.7992 58.3696L51.7984 63.1063C51.9359 63.2149 52.1016 63.2688 52.268 63.2688C52.4172 63.2688 52.5672 63.225 52.6969 63.1367C52.9711 62.9485 53.0906 62.6039 52.9922 62.2875L51.4766 57.3969C54.5789 56.3563 56.9719 54.6469 58.4688 53.3485L64.968 57.1516C65.5344 57.4844 66.2211 57.4203 66.718 56.9914C67.2149 56.5617 67.3774 55.8907 67.1305 55.2813L65.0289 50.0664ZM31.45 50.0703C32.1516 49.0172 34.5516 45.9125 39.2109 44.3094C40.2297 46.4055 41.6094 50.7453 39.1586 55.8297C34.5016 54.2133 32.1469 51.1383 31.45 50.0703ZM59.2367 52.043C58.6859 51.7157 57.982 51.7789 57.4813 52.2039C55.9859 53.4946 53.5406 55.2258 50.3688 56.1563C50.1898 56.1946 50.0274 56.2977 49.9172 56.4477C49.7742 56.6422 49.732 56.8914 49.8031 57.1211L50.8211 60.4039L46.5234 57.0102C46.3883 56.9047 46.2234 56.8477 46.0531 56.8477C46.0406 56.8477 46.0297 56.8477 46.0172 56.8477C45.882 56.8547 45.7461 56.8547 45.6094 56.8547C45.5711 56.8539 45.5352 56.8547 45.4969 56.8547C43.6734 56.8547 42.0617 56.6289 40.6266 56.2688C43.1313 50.8821 41.7883 46.2563 40.6789 43.8688C41.7734 43.593 42.9359 43.4117 44.1578 43.3344C44.5633 43.3 45.0008 43.2844 45.4961 43.2844C45.6578 43.2844 45.8156 43.2328 45.9453 43.1367L50.8024 39.5532L49.7992 43.0321C49.7328 43.2617 49.782 43.5071 49.925 43.6985C50.0281 43.8352 50.175 43.9321 50.3375 43.975C53.0461 44.7657 55.5852 46.2141 57.8836 48.2805C58.1281 48.5016 58.4899 48.5375 58.7727 48.3711L65.7227 44.286L63.5086 49.7836C63.4352 49.9649 63.4352 50.168 63.5086 50.35L65.7313 55.8446L59.2367 52.043Z" fill="#28A922"/>
<path d="M36.5734 46.7758C35.3742 46.7758 34.3984 47.7516 34.3984 48.9508C34.3984 50.1492 35.3742 51.125 36.5734 51.125C37.7727 51.125 38.7484 50.1492 38.7484 48.9508C38.7492 47.7516 37.7734 46.7758 36.5734 46.7758ZM36.5734 49.6109C36.2094 49.6109 35.9133 49.3148 35.9133 48.9508C35.9133 48.5867 36.2094 48.2906 36.5734 48.2906C36.9375 48.2906 37.2336 48.5867 37.2336 48.9508C37.2336 49.3148 36.9375 49.6109 36.5734 49.6109ZM67.2422 26.1359C65.0602 26.1359 63.9578 26.6258 62.8922 27.0992C61.9289 27.5273 61.0187 27.9305 59.1578 27.9305C57.2969 27.9305 56.3875 27.5266 55.4234 27.0992C54.3578 26.6258 53.2555 26.1359 51.0734 26.1359C48.8937 26.1359 47.7922 26.6258 46.7266 27.0992C45.7641 27.5273 44.8547 27.9305 42.9953 27.9305C41.1352 27.9305 40.2258 27.5266 39.2625 27.0992C38.1969 26.6258 37.0953 26.1359 34.9141 26.1359C32.7344 26.1359 31.6328 26.6258 30.5672 27.0992C29.6047 27.5273 28.6953 27.9305 26.8367 27.9305C24.9781 27.9305 24.068 27.5266 23.1062 27.0992C22.0391 26.6258 20.9375 26.1359 18.7578 26.1359C18.3391 26.1359 18 26.4758 18 26.8937C18 27.3125 18.3391 27.6516 18.7578 27.6516C20.6164 27.6516 21.5258 28.0562 22.4875 28.4836C23.5523 28.957 24.6539 29.4461 26.8336 29.4461C29.0141 29.4461 30.1148 28.957 31.1797 28.4836C32.143 28.0555 33.0516 27.6516 34.9109 27.6516C36.7711 27.6516 37.6812 28.0562 38.6437 28.4836C39.7102 28.957 40.8117 29.4461 42.9922 29.4461C45.1727 29.4461 46.2742 28.957 47.3391 28.4836C48.3023 28.0555 49.2109 27.6516 51.0703 27.6516C52.9313 27.6516 53.8414 28.0562 54.8047 28.4836C55.8711 28.957 56.9727 29.4461 59.1547 29.4461C61.3367 29.4461 62.4391 28.957 63.5047 28.4836C64.4688 28.0555 65.3781 27.6516 67.2391 27.6516C67.6578 27.6516 67.9969 27.3125 67.9969 26.8937C68 26.4758 67.6609 26.1359 67.2422 26.1359ZM18.7578 21.7383C20.6164 21.7383 21.5258 22.143 22.4875 22.5703C23.5523 23.0437 24.6539 23.5328 26.8336 23.5328C29.0141 23.5328 30.1148 23.0437 31.1797 22.5703C32.143 22.1422 33.0516 21.7383 34.9109 21.7383C36.7711 21.7383 37.6812 22.143 38.6437 22.5703C39.7102 23.0437 40.8117 23.5328 42.9922 23.5328C45.1727 23.5328 46.2742 23.0437 47.3391 22.5703C48.3023 22.1422 49.2109 21.7383 51.0703 21.7383C52.9313 21.7383 53.8414 22.143 54.8047 22.5703C55.8711 23.0437 56.9727 23.5328 59.1547 23.5328C61.3367 23.5328 62.4391 23.0437 63.5047 22.5703C64.4688 22.1422 65.3781 21.7383 67.2391 21.7383C67.6578 21.7383 67.9969 21.3984 67.9969 20.9805C67.9969 20.5625 67.6578 20.2227 67.2391 20.2227C65.057 20.2227 63.9547 20.7125 62.8891 21.1852C61.9258 21.6133 61.0156 22.0172 59.1547 22.0172C57.2938 22.0172 56.3844 21.6125 55.4203 21.1852C54.3547 20.7125 53.2523 20.2227 51.0703 20.2227C48.8906 20.2227 47.7891 20.7125 46.7234 21.1852C45.7609 21.6133 44.8516 22.0172 42.9922 22.0172C41.132 22.0172 40.2227 21.6125 39.2594 21.1852C38.1938 20.7125 37.0922 20.2227 34.9109 20.2227C32.7312 20.2227 31.6297 20.7125 30.5641 21.1852C29.6016 21.6133 28.6922 22.0172 26.8336 22.0172C24.975 22.0172 24.0656 21.6141 23.1031 21.1859C22.0391 20.7133 20.9375 20.2234 18.7578 20.2234C18.3391 20.2234 18 20.5625 18 20.9805C18 21.3984 18.3391 21.7383 18.7578 21.7383Z" fill="#28A922"/>
</svg>
